<?xml version="1.0" encoding="utf-8"?>
<!-- Generator: Adobe Illustrator 15.0.2, SVG Export Plug-In . SVG Version: 6.00 Build 0)  -->
<!DOCTYPE svg PUBLIC "-//W3C//DTD SVG 1.1//EN" "http://www.w3.org/Graphics/SVG/1.1/DTD/svg11.dtd" [
	<!ENTITY ns_extend "http://ns.adobe.com/Extensibility/1.0/">
	<!ENTITY ns_ai "http://ns.adobe.com/AdobeIllustrator/10.0/">
	<!ENTITY ns_graphs "http://ns.adobe.com/Graphs/1.0/">
	<!ENTITY ns_vars "http://ns.adobe.com/Variables/1.0/">
	<!ENTITY ns_imrep "http://ns.adobe.com/ImageReplacement/1.0/">
	<!ENTITY ns_sfw "http://ns.adobe.com/SaveForWeb/1.0/">
	<!ENTITY ns_custom "http://ns.adobe.com/GenericCustomNamespace/1.0/">
	<!ENTITY ns_adobe_xpath "http://ns.adobe.com/XPath/1.0/">
]>
<svg version="1.1" id="Layer_1" xmlns:x="&ns_extend;" xmlns:i="&ns_ai;" xmlns:graph="&ns_graphs;"
	 xmlns="http://www.w3.org/2000/svg" xmlns:xlink="http://www.w3.org/1999/xlink" x="0px" y="0px" width="340.334px" height="236px"
	 viewBox="13.998 0 340.334 236" enable-background="new 13.998 0 340.334 236" xml:space="preserve">
<metadata>
	<sfw  xmlns="&ns_sfw;">
		<slices></slices>
		<sliceSourceBounds  y="632.5" x="816.669" height="236" width="366.996" bottomLeftOrigin="true"></sliceSourceBounds>
	</sfw>
</metadata>
<g>
	<polygon fill="#00AEEF" points="342.047,184.202 342.047,185.516 344.116,185.516 344.116,200.863 342.047,200.863 342.047,202.18 
		345.661,202.18 345.661,184.202 	"/>
	<g>
		<path fill="#FFFFFF" d="M328.439,200.623h4.78c4.16-0.098,6.345-2.378,6.345-6.906c0-4.529-2.185-6.812-6.345-6.908h-4.78V200.623
			z M329.754,187.928h2.806c3.97-0.019,5.692,1.666,5.692,5.789c0,4.121-1.724,5.805-5.692,5.785h-2.806V187.928z M315.225,200.623
			h9.634v-1.121h-8.321v-5.459h7.703v-1.117h-7.703v-4.998h8.226v-1.119h-9.537L315.225,200.623L315.225,200.623z M305.606,200.623
			h1.527l5.127-13.814h-1.393l-4.451,12.365h-0.039l-4.486-12.365h-1.412L305.606,200.623z M291.654,200.623h9.056v-1.121h-7.742
			v-12.693h-1.312L291.654,200.623L291.654,200.623z M276.153,193.717c0-3.021,1.549-6.078,5.206-6.078
			c3.638,0,5.188,3.059,5.188,6.078s-1.551,6.074-5.188,6.074C277.702,199.791,276.153,196.735,276.153,193.717 M274.838,193.717
			c0,3.773,2.166,7.196,6.521,7.196c4.337,0,6.502-3.423,6.502-7.196c0-3.775-2.165-7.199-6.502-7.199
			C277.004,186.518,274.838,189.941,274.838,193.717 M265.956,200.623h1.528l5.127-13.814h-1.396l-4.448,12.365h-0.036l-4.49-12.365
			h-1.412L265.956,200.623z M246.974,200.623h1.313v-11.688h0.037l8.055,11.688h1.469v-13.814h-1.314v11.688h-0.039l-8.052-11.688
			h-1.469V200.623z M241.053,200.623h1.312v-13.814h-1.312V200.623z M226.963,187.928h4.82v12.695h1.314v-12.695h4.818v-1.119
			h-10.953V187.928L226.963,187.928z M215.239,200.623h9.633v-1.121h-8.32v-5.459h7.705v-1.117h-7.705v-4.998h8.226v-1.119h-9.536
			v13.814H215.239z M210.961,193.6h-5.863v1.121h4.701c0.06,2.924-1.721,5.07-4.78,5.07c-3.656,0-5.205-3.056-5.205-6.072
			c0-3.021,1.549-6.08,5.205-6.08c2.634,0,4.278,1.877,4.453,3.465h1.312c-0.502-3.02-2.861-4.586-5.766-4.586
			c-4.354,0-6.52,3.425-6.52,7.201c0,3.771,2.164,7.194,6.52,7.194c1.996,0,3.854-0.83,4.781-2.806h0.037l0.178,2.516h0.945V193.6
			H210.961z"/>
	</g>
	<path fill="#00AEEF" d="M184.257,184.202v1.313h2.071v15.348h-2.071v1.314h3.618v-17.977L184.257,184.202L184.257,184.202z
		 M192.404,184.202v17.978h3.618v-1.315h-2.072v-15.349h2.072v-1.312L192.404,184.202L192.404,184.202z"/>
	<g>
		<path fill="#FFFFFF" d="M172.435,200.622h9.634v-1.118h-8.32v-5.46h7.702v-1.118h-7.702v-4.998h8.224v-1.117h-9.537V200.622z
			 M159.1,187.928h4.916c1.975,0,2.98,1.066,2.98,2.75c0,1.685-1.374,2.692-2.98,2.692H159.1V187.928z M157.787,200.622h1.313
			v-6.135h4.992c2.499-0.097,2.653,2.053,2.77,3.987c0.038,0.582,0.038,1.605,0.367,2.146h1.449c-0.58-0.693-0.58-2.593-0.639-3.539
			c-0.095-1.646-0.617-2.884-2.417-3.117v-0.037c1.781-0.349,2.688-1.779,2.688-3.521c0-2.498-1.915-3.598-4.199-3.598h-6.326
			L157.787,200.622L157.787,200.622z M148.574,188.123l2.671,7.083h-5.437L148.574,188.123z M142.325,200.622h1.412l1.665-4.294
			h6.287l1.685,4.294h1.414l-5.419-13.812h-1.47L142.325,200.622z M128.489,200.622h1.312v-6.694h8.207v6.694h1.314v-13.812h-1.314
			v5.996h-8.207v-5.996h-1.312V200.622z M113.859,196.076c-0.155,3.369,2.243,4.837,5.514,4.837c4.896,0,5.281-2.996,5.281-3.944
			c0-2.266-1.622-3.117-3.577-3.64l-3.369-0.831c-1.123-0.271-2.091-0.812-2.091-2.111c0-2.052,1.665-2.75,3.465-2.75
			c1.956,0,3.697,1.065,3.775,3.178h1.312c0.021-2.827-2.376-4.295-5.106-4.295c-3.891,0-4.759,2.531-4.759,3.888
			c0,2.147,1.487,2.923,3.113,3.331l3.077,0.751c1.279,0.312,2.847,0.93,2.847,2.496c0,2.016-2.208,2.808-3.659,2.808
			c-2.518,0-4.567-0.871-4.512-3.716L113.859,196.076L113.859,196.076z"/>
	</g>
	<path fill="#00AEEF" d="M99.657,184.202v1.313h2.07v15.348h-2.07v1.314h3.615v-17.977L99.657,184.202L99.657,184.202z
		 M107.804,184.202v17.978h3.614v-1.315h-2.07v-15.349h2.07v-1.312L107.804,184.202L107.804,184.202z"/>
	<g>
		<path fill="#FFFFFF" d="M85.667,200.623h1.312v-11.688h0.04l8.052,11.688h1.468v-13.812h-1.313v11.687h-0.039l-8.053-11.687
			h-1.467V200.623z M72.351,187.928h4.916c1.975,0,2.979,1.065,2.979,2.75s-1.375,2.691-2.979,2.691H72.35L72.351,187.928
			L72.351,187.928z M71.036,200.623h1.314v-6.135h4.994c2.496-0.098,2.651,2.051,2.768,3.986c0.038,0.582,0.038,1.605,0.368,2.147
			h1.449c-0.58-0.694-0.58-2.594-0.639-3.54c-0.098-1.646-0.619-2.887-2.418-3.115v-0.039c1.78-0.349,2.688-1.777,2.688-3.521
			c0-2.497-1.914-3.598-4.197-3.598h-6.328V200.623z M61.824,188.123l2.67,7.083h-5.437L61.824,188.123z M55.575,200.623h1.413
			l1.664-4.296h6.289l1.682,4.296h1.413l-5.417-13.812h-1.472L55.575,200.623z M43.886,200.623h9.636v-1.121h-8.321v-5.459h7.702
			v-1.12h-7.702v-4.995h8.225v-1.117h-9.539V200.623z M31.753,200.623h9.053v-1.121h-7.739v-12.691h-1.313V200.623z"/>
	</g>
	<polygon fill="#00AEEF" points="25.001,184.202 25.001,202.18 28.617,202.18 28.617,200.863 26.546,200.863 26.546,185.516 
		28.617,185.516 28.617,184.202 	"/>
	<polygon fill="#00AEEF" points="342.316,156.441 342.316,157.542 344.352,157.542 344.352,174.448 342.316,174.448 
		342.316,175.551 345.661,175.551 345.661,156.441 	"/>
	<g>
		<path fill="#F26522" d="M329.543,173.389h10.342v-1.203h-8.93v-5.856h8.267v-1.206h-8.267v-5.357h8.828v-1.205h-10.24V173.389z
			 M315.231,159.766h4.859c2.201,0,3.345,0.934,3.345,2.782c0,1.392-1.079,2.513-3.345,2.513h-4.859V159.766z M313.819,173.389
			h6.271c4.818,0,5.316-2.804,5.316-4.217c0-1.931-1.225-3.363-3.136-3.613v-0.041c1.537-0.334,2.576-1.767,2.576-3.322
			c0-2.764-2.265-3.635-4.759-3.635h-6.271L313.819,173.389L313.819,173.389z M315.231,166.266h4.859
			c2.472,0,3.904,0.977,3.904,2.865c0,2.367-1.806,3.075-3.904,3.055h-4.859V166.266z M308.44,171.188h-1.745v2.201h1.745V171.188z
			 M295.81,159.766h4.86c1.953,0,3.304,0.994,3.304,3.029c0,2.037-1.351,3.033-3.304,3.033h-4.86V159.766z M294.398,173.389h1.411
			v-6.354h5.174c2.658,0,4.402-1.558,4.402-4.238c0-2.678-1.744-4.235-4.402-4.235h-6.585V173.389L294.398,173.389z
			 M275.186,173.389h1.413v-12.813h0.042l5.089,12.813h1.328l5.067-12.813h0.041v12.813h1.414v-14.828h-2.078l-5.109,13.002
			l-5.131-13.002h-2.076V173.389L275.186,173.389z M265.34,159.973l2.865,7.603h-5.836L265.34,159.973z M258.631,173.389h1.517
			l1.787-4.608h6.75l1.806,4.608h1.518l-5.813-14.828h-1.579L258.631,173.389z M256.036,163.045
			c-0.375-3.113-3.158-4.798-5.963-4.798c-4.673,0-6.998,3.676-6.998,7.728c0,4.051,2.325,7.728,6.998,7.728
			c3.471,0,5.773-2.327,6.17-5.961h-1.414c-0.268,2.637-2.013,4.756-4.756,4.756c-3.925,0-5.587-3.281-5.587-6.522
			c0-3.239,1.662-6.521,5.587-6.521c2.161,0,4.051,1.308,4.549,3.592L256.036,163.045L256.036,163.045z M230.756,173.389h9.723
			v-1.203h-8.309v-13.625h-1.414V173.389z M220.872,159.973l2.865,7.603h-5.836L220.872,159.973z M214.161,173.389h1.519
			l1.784-4.608h6.752l1.808,4.608h1.517l-5.816-14.828h-1.577L214.161,173.389z M203.797,159.766h4.859
			c1.953,0,3.303,0.994,3.303,3.029c0,2.037-1.35,3.033-3.303,3.033h-4.859V159.766z M202.385,173.389h1.412v-6.354h5.172
			c2.658,0,4.404-1.558,4.404-4.238c0-2.678-1.746-4.235-4.404-4.235h-6.584V173.389z M186.142,168.053
			c0,3.051,1.642,5.648,5.752,5.648c4.135,0,5.774-2.598,5.774-5.648v-9.492h-1.41v9.181c0.02,3.446-1.62,4.756-4.364,4.756
			c-2.72,0-4.36-1.31-4.339-4.756v-9.181h-1.413V168.053z M171.976,159.766h5.275c2.119,0,3.198,1.142,3.198,2.948
			c0,1.806-1.474,2.888-3.198,2.888h-5.275V159.766z M170.564,173.389h1.412v-6.582h5.358c2.682-0.104,2.847,2.201,2.972,4.277
			c0.041,0.623,0.041,1.725,0.394,2.305h1.558c-0.624-0.746-0.624-2.781-0.686-3.799c-0.104-1.767-0.666-3.095-2.597-3.347v-0.04
			c1.911-0.375,2.887-1.912,2.887-3.781c0-2.679-2.058-3.861-4.508-3.861h-6.792v14.828H170.564z M154.466,173.389h5.131
			c4.467-0.104,6.812-2.554,6.812-7.414s-2.346-7.312-6.812-7.414h-5.131V173.389z M155.878,159.766h3.012
			c4.258-0.021,6.106,1.785,6.106,6.209s-1.849,6.231-6.106,6.211h-3.012V159.766z M149.086,171.188h-1.744v2.201h1.744V171.188z
			 M133.715,168.674l5.483-7.914h0.043v7.914H133.715z M132.533,169.775h6.709v3.613h1.204v-3.613h2.182v-1.103h-2.182v-9.821
			h-1.183l-6.73,9.655V169.775z M120.505,162.589h3.844v10.8h1.308v-14.537h-1.06c-0.395,2.679-1.808,2.72-4.092,2.804V162.589z
			 M110.848,158.725c-4.238,0-5.069,4.094-5.069,7.5c0,3.386,0.831,7.478,5.069,7.478c4.236,0,5.066-4.092,5.066-7.498
			C115.916,162.816,115.084,158.725,110.848,158.725 M110.848,159.827c3.322,0,3.759,3.862,3.759,6.376
			c0,2.534-0.438,6.396-3.759,6.396c-3.324,0-3.761-3.862-3.761-6.396C107.087,163.689,107.524,159.827,110.848,159.827
			 M101.979,172.184h-8.081c0.354-1.953,2.95-3.238,4.36-4.194c1.892-1.226,3.656-2.742,3.656-5.173
			c0-2.699-1.973-4.092-4.505-4.092c-3.158,0-4.716,2.162-4.653,5.152h1.309c-0.041-2.141,0.894-4.051,3.282-4.051
			c1.765,0,3.261,1.079,3.261,2.968c0,1.163-0.416,1.935-1.205,2.744c-2.471,2.47-6.896,3.529-6.999,7.851h9.575V172.184z
			 M78.132,159.766h5.174v13.623h1.41v-13.623h5.174v-1.205H78.132V159.766z M63.219,173.389h1.412v-12.545h0.042l8.641,12.545h1.58
			v-14.828h-1.413v12.543h-0.042l-8.642-12.543h-1.579L63.219,173.389L63.219,173.389z M49.055,173.389H59.4v-1.203h-8.934v-5.856
			h8.268v-1.206h-8.268v-5.357h8.827v-1.205H49.054L49.055,173.389L49.055,173.389z M44.464,165.85h-6.293v1.203h5.047
			c0.062,3.137-1.848,5.442-5.13,5.442c-3.927,0-5.588-3.281-5.588-6.522c0-3.24,1.661-6.521,5.588-6.521
			c2.824,0,4.589,2.015,4.776,3.717h1.413c-0.542-3.239-3.075-4.923-6.189-4.923c-4.673,0-7,3.676-7,7.727s2.326,7.729,7,7.729
			c2.14,0,4.134-0.895,5.13-3.014h0.042l0.187,2.701h1.019L44.464,165.85L44.464,165.85z"/>
	</g>
	<polygon fill="#00AEEF" points="28.346,175.551 28.346,174.45 26.311,174.45 26.311,157.543 28.346,157.543 28.346,156.439 
		25.001,156.439 25.001,175.551 	"/>
	<g>
		<g>
			<defs>
				<path id="SVGID_1_" d="M237.183,107.782l1.657-4.937l7.074,4.237l-1.797,5.096L237.183,107.782z M123.452,104.765l4.357-2.718
					l2.638,7.754l-4.357,2.797L123.452,104.765z M239.081,61.639l6.635-4.677l2.119,4.677l-6.715,5.195L239.081,61.639z
					 M120.914,63.847l3.247-7.594l4.847,3.447l-3.347,7.545L120.914,63.847z M111.642,141.76h256.021V33.82H111.642V141.76z"/>
			</defs>
			<clipPath id="SVGID_2_">
				<use xlink:href="#SVGID_1_"  overflow="visible"/>
			</clipPath>
			<path clip-path="url(#SVGID_2_)" fill="none" d="M307.097,41.863c2.581,0.512,5.004,1.198,7.407,2.096
				C312.06,43.046,309.622,42.365,307.097,41.863 M294.233,44.823c2.998,0,6.146,0.166,9.469,0.52
				c0.035,0.005,0.07,0.011,0.105,0.016c-0.035-0.005-0.068-0.01-0.104-0.015C300.463,44.998,297.278,44.823,294.233,44.823
				c-5.793,0-11.041,0.622-15.879,1.72c0.41-0.093,0.822-0.184,1.236-0.27C284.079,45.346,288.917,44.823,294.233,44.823
				 M305.928,45.716c1.996,0.379,3.906,0.871,5.812,1.512C309.864,46.598,307.952,46.1,305.928,45.716 M143.469,46.022
				c6.431,0.271,12.062,3.655,16.138,6.359c-0.869-0.576-1.82-1.191-2.844-1.803c-2.291-1.369-4.942-2.729-7.883-3.612
				C147.168,46.453,145.357,46.102,143.469,46.022 M266.111,46.232c-0.202,0.084-0.405,0.167-0.608,0.252
				c-0.379,0.159-0.756,0.321-1.131,0.485c0.375-0.164,0.752-0.326,1.131-0.485C265.706,46.399,265.909,46.315,266.111,46.232
				 M311.743,47.227c0.004,0.002,0.008,0.003,0.012,0.004C311.75,47.23,311.747,47.229,311.743,47.227 M322.127,47.527
				c7.008,3.889,14.697,9.684,19.092,15.611c-2.065-2.784-4.872-5.54-8.032-8.121c-3.158-2.579-6.668-4.973-10.14-6.97
				C322.741,47.872,322.435,47.698,322.127,47.527 M314.438,48.234c0.094,0.038,0.188,0.076,0.279,0.115
				c0.16,0.067,0.32,0.135,0.482,0.205c-0.162-0.07-0.322-0.138-0.482-0.205C314.625,48.31,314.532,48.272,314.438,48.234
				 M142.647,50.01c1.294,0,2.574,0.166,3.833,0.459c1.258,0.293,2.495,0.713,3.691,1.215c2.396,1.005,4.628,2.341,6.571,3.607
				c1.297,0.845,2.463,1.657,3.496,2.329c1.419,0.922,3.251,2.253,5.367,3.819c2.118,1.568,4.525,3.374,7.136,5.264
				c5.223,3.779,11.25,7.895,17.466,11.146c4.146,2.166,8.379,3.953,12.553,4.981c0.734,0.181,1.468,0.338,2.199,0.468
				c-13.082-2.34-27.665-13.175-37.696-20.628c-2.795-2.076-5.208-3.869-7.024-5.05c-0.483-0.313-1.003-0.664-1.554-1.035
				C154.798,53.967,148.926,50.01,142.647,50.01c-1.313,0-2.61,0.175-3.854,0.521c-0.014,0.004-0.027,0.008-0.041,0.011
				c0.014-0.003,0.027-0.007,0.041-0.011C140.098,50.168,141.378,50.01,142.647,50.01 M124.875,57.094
				c-0.215,0.363-0.423,0.733-0.624,1.108c0.107-0.199,0.216-0.397,0.326-0.594C124.675,57.435,124.775,57.264,124.875,57.094
				 M246.247,57.322c-1.024,0.697-2.045,1.402-3.061,2.113C244.19,58.731,245.211,58.025,246.247,57.322 M329.667,57.329
				c1.351,1.059,2.635,2.151,3.818,3.254c1.781,1.658,3.332,3.34,4.518,4.939c3.363,4.536,5.892,9.479,7.58,14.553
				c0.012,0.033,0.021,0.068,0.035,0.104c-1.705-5.15-4.262-10.13-7.615-14.656C336.049,62.889,333.092,60.025,329.667,57.329
				 M242.983,59.577c-3.49,2.451-6.84,5.414-10.262,8.302c-0.971,0.818-1.942,1.63-2.926,2.423c1.594-1.286,3.156-2.616,4.705-3.935
				C237.396,63.905,240.131,61.579,242.983,59.577 M246.217,62.204c-0.297,0.206-0.594,0.414-0.891,0.621
				c-0.318,0.222-0.635,0.449-0.951,0.682c0.316-0.233,0.635-0.46,0.951-0.682C245.624,62.617,245.92,62.41,246.217,62.204
				 M341.219,63.139c0.281,0.379,0.558,0.761,0.828,1.147C341.777,63.9,341.5,63.517,341.219,63.139 M244.368,63.513
				c-0.004,0.002-0.007,0.004-0.01,0.006C244.362,63.517,244.364,63.515,244.368,63.513 M238.62,68.124
				c-0.502,0.426-1.01,0.856-1.522,1.293c-6.5,5.531-13.224,11.249-21.692,13.607c2.325-0.647,4.521-1.555,6.61-2.635
				c2.104-1.088,4.101-2.352,6.014-3.708C231.812,73.996,235.28,70.948,238.62,68.124 M218.862,77.477l-0.002,0.001
				C218.861,77.478,218.861,77.478,218.862,77.477 M218.833,77.492c-0.002,0.001-0.006,0.003-0.008,0.004
				C218.827,77.494,218.831,77.493,218.833,77.492 M218.808,77.503c-0.004,0.003-0.009,0.005-0.015,0.007
				C218.799,77.508,218.803,77.506,218.808,77.503 M218.786,77.514c-1.461,0.675-2.959,1.239-4.504,1.667
				c-1.253,0.346-2.574,0.529-3.957,0.563c1.398-0.035,2.729-0.225,3.957-0.563C215.831,78.752,217.331,78.186,218.786,77.514
				 M215.402,83.024c-0.009,0.002-0.017,0.006-0.024,0.008C215.385,83.03,215.394,83.026,215.402,83.024 M215.375,83.033
				c-0.01,0.002-0.02,0.005-0.026,0.007s-0.015,0.004-0.021,0.006c0.006-0.002,0.014-0.004,0.021-0.006
				S215.366,83.035,215.375,83.033 M215.32,83.048c-0.005,0.001-0.009,0.002-0.013,0.003
				C215.312,83.05,215.315,83.049,215.32,83.048 M207.44,83.639c0.004,0.001,0.008,0.001,0.012,0.001
				C207.448,83.64,207.444,83.64,207.44,83.639 M207.459,83.641c0.799,0.075,1.594,0.114,2.383,0.114l0,0
				c0.152,0,0.306-0.002,0.457-0.005c-0.151,0.003-0.305,0.005-0.459,0.005C209.056,83.755,208.26,83.716,207.459,83.641
				 M207.077,91.235c-1.959,0.137-3.857,0.56-5.682,1.207c-2.252,0.8-4.395,1.939-6.45,3.312c-4.11,2.749-7.892,6.428-11.527,10.366
				c-0.452,0.488-0.9,0.981-1.348,1.479C189.575,99.266,197.521,91.892,207.077,91.235 M120.534,91.587
				c0.305,1.581,0.671,3.147,1.1,4.693c0.646,2.833,1.376,5.978,2.314,9.104c-0.988-3.28-1.72-6.493-2.313-9.102
				C121.204,94.733,120.837,93.166,120.534,91.587 M213.178,91.746c10.48,2.479,20.525,8.331,30.921,14.975
				c-2.914-1.863-5.817-3.672-8.724-5.368C228.07,97.092,220.75,93.54,213.178,91.746 M352.036,92.54
				c0.316,5.457-0.258,10.868-1.77,15.962c0.051-0.171,0.102-0.343,0.148-0.514c1.141-4.026,1.703-8.265,1.703-12.577
				C352.12,94.457,352.09,93.5,352.036,92.54 M125.367,94.749c0.045,0.169,0.091,0.337,0.138,0.505l0.001,0.003l-0.001-0.002
				C125.458,95.086,125.412,94.918,125.367,94.749 M208.459,95.191c1.232,0,2.492,0.144,3.797,0.451
				c0.646,0.153,1.295,0.321,1.943,0.503c-0.648-0.182-1.295-0.349-1.943-0.503C210.991,95.344,209.713,95.191,208.459,95.191
				c-10.356,0-19.308,10.302-27.964,20.263c-8.812,10.14-17.136,19.718-27.345,19.718c-5.173,0-10.164-2.47-15.258-7.549
				c-0.252-0.252-0.503-0.501-0.75-0.747c-0.286-0.284-0.571-0.567-0.855-0.851c0.528,0.527,1.063,1.057,1.606,1.598
				c1.949,1.943,3.872,3.488,5.787,4.665c1.912,1.176,3.821,1.981,5.717,2.437c1.263,0.302,2.518,0.447,3.753,0.447h0.003
				c1.775,0,3.506-0.301,5.173-0.836c1.668-0.535,3.275-1.304,4.832-2.244c3.113-1.882,6.038-4.443,8.902-7.332
				c1.907-1.927,3.787-4,5.657-6.125c2.495-2.833,4.979-5.756,7.487-8.532c3.34-3.701,6.729-7.14,10.193-9.757
				c1.979-1.497,3.979-2.725,5.998-3.602C203.709,95.742,206.038,95.192,208.459,95.191 M127.708,103.982
				c1.09,3.665,2.494,7.381,4.366,10.237c-1.609-2.451-2.906-5.588-3.956-8.901C127.977,104.876,127.84,104.43,127.708,103.982
				 M346.235,107.991c-0.453,1.438-0.99,2.842-1.607,4.197c-2.321,5.098-5.785,9.553-10.424,12.992
				c-2.904,2.149-6.27,3.903-10.129,5.157c10.682-3.475,18.475-11.2,21.994-21.833C346.125,108.333,346.181,108.163,346.235,107.991
				 M238.803,108.109c7.193,4.491,14.558,9.531,22.268,14.149c4.982,2.983,10.112,5.79,15.444,8.151
				c-0.541-0.238-1.082-0.483-1.628-0.735c-9.577-4.434-18.561-10.264-27.25-15.902C244.657,111.838,241.717,109.93,238.803,108.109
				 M349.454,110.96c-1.477,4.048-3.522,7.699-6.074,10.888C345.997,118.572,348.019,114.891,349.454,110.96 M132.615,115.189
				c1.736,3.026,3.761,5.243,6.046,7.543c-0.948-0.952-1.837-1.879-2.669-2.836C134.76,118.479,133.648,116.992,132.615,115.189
				 M128.177,115.542c0.161,0.268,0.326,0.533,0.495,0.794c0.021,0.038,0.041,0.076,0.062,0.114
				c-0.021-0.038-0.04-0.075-0.061-0.113C128.504,116.077,128.339,115.811,128.177,115.542 M139.559,123.632
				c0.134,0.134,0.27,0.269,0.405,0.403c0.025,0.023,0.05,0.05,0.074,0.072C139.877,123.949,139.717,123.79,139.559,123.632
				 M322.086,130.934c-5.058,1.422-9.905,2.123-14.592,2.246C312.334,133.053,317.229,132.298,322.086,130.934 M304.36,137.182
				c0.547,0.017,1.096,0.022,1.646,0.022h0.006c0.301,0,0.604-0.002,0.904-0.007c-0.304,0.005-0.607,0.007-0.91,0.007
				C305.459,137.204,304.911,137.197,304.36,137.182"/>
		</g>
		<g>
			<defs>
				<path id="SVGID_3_" d="M237.183,107.782l1.657-4.937l7.074,4.237l-1.797,5.096L237.183,107.782z M123.452,104.765l4.357-2.718
					l2.638,7.754l-4.357,2.797L123.452,104.765z M239.081,61.639l6.635-4.677l2.119,4.677l-6.715,5.195L239.081,61.639z
					 M120.914,63.847l3.247-7.594l4.847,3.447l-3.347,7.545L120.914,63.847z M111.642,141.76h256.021V33.82H111.642V141.76z"/>
			</defs>
			<clipPath id="SVGID_4_">
				<use xlink:href="#SVGID_3_"  overflow="visible"/>
			</clipPath>
			<path clip-path="url(#SVGID_4_)" fill="#FFFFFF" d="M294.234,40.819L294.234,40.819c3.196,0,6.538,0.184,9.933,0.547l0.074,0.009
				c0.977,0.141,1.928,0.303,2.855,0.487c2.523,0.502,4.963,1.184,7.406,2.097c0.588,0.219,1.174,0.451,1.76,0.696
				c1.832,0.766,3.818,1.738,5.863,2.873c0.307,0.17,0.613,0.343,0.922,0.52c3.471,1.996,6.979,4.392,10.139,6.97
				c3.16,2.581,5.967,5.338,8.033,8.12c0.279,0.381,0.558,0.764,0.828,1.148c5.994,8.531,9.422,18.468,9.988,28.254
				c0.055,0.959,0.082,1.917,0.082,2.871c0,4.312-0.562,8.55-1.703,12.576c-0.049,0.172-0.099,0.344-0.148,0.515
				c-0.125,0.423-0.258,0.843-0.396,1.261c-0.133,0.402-0.271,0.802-0.416,1.196c-1.436,3.932-3.457,7.613-6.074,10.889
				c-4.719,5.899-11.162,10.223-18.92,12.565c-5.824,1.76-11.719,2.696-17.543,2.784c-0.301,0.005-0.604,0.007-0.903,0.007h-0.007
				c-0.551,0-1.1-0.007-1.646-0.022c-8.969-0.242-18.112-2.466-27.846-6.771c-5.332-2.36-10.461-5.168-15.444-8.151
				c-7.71-4.618-15.074-9.657-22.267-14.147c-8.322-5.198-16.425-9.672-24.604-11.965c-0.646-0.182-1.296-0.35-1.941-0.502
				c-1.305-0.309-2.564-0.451-3.797-0.451c-2.424,0.001-4.75,0.55-7.062,1.552c-2.02,0.877-4.02,2.104-5.998,3.601
				c-3.465,2.618-6.854,6.057-10.193,9.759c-2.509,2.775-4.992,5.697-7.486,8.531c-1.872,2.125-3.75,4.198-5.658,6.125
				c-2.864,2.889-5.789,5.45-8.902,7.332c-1.557,0.94-3.164,1.709-4.832,2.244c-1.667,0.535-3.397,0.835-5.173,0.835h-0.003
				c-1.235,0.001-2.49-0.145-3.753-0.446c-1.896-0.453-3.804-1.262-5.717-2.437c-1.915-1.177-3.837-2.721-5.788-4.665
				c-0.542-0.542-1.077-1.07-1.605-1.597c-2.766-2.765-5.368-5.523-7.554-9.576c-0.021-0.038-0.041-0.076-0.062-0.115
				c-0.169-0.26-0.334-0.524-0.494-0.793c-1.806-3.015-3.166-6.625-4.23-10.157c-0.938-3.127-1.67-6.272-2.314-9.104
				c-0.429-1.545-0.796-3.112-1.1-4.693c-0.736-3.828-1.102-7.717-1.106-11.519v-0.159c0.011-8.092,1.653-15.789,4.824-21.707
				c0.201-0.376,0.409-0.745,0.624-1.108c3.177-5.372,7.608-8.97,12.848-10.423c1.593-0.441,3.249-0.666,4.924-0.666
				c0.275,0,0.55,0.006,0.823,0.018c1.887,0.081,3.698,0.431,5.41,0.943c2.939,0.883,5.592,2.244,7.883,3.613
				c1.023,0.612,1.975,1.227,2.844,1.803c0.459,0.305,0.897,0.601,1.315,0.882c0.536,0.361,1.043,0.703,1.498,0.998
				c1.922,1.249,4.383,3.077,7.231,5.193c10.877,8.082,27.315,20.295,40.188,20.295c0.162,0,0.322-0.002,0.482-0.006
				c1.385-0.034,2.705-0.218,3.957-0.564c1.545-0.427,3.043-0.99,4.506-1.667c0.002-0.001,0.004-0.002,0.008-0.004
				c0.006-0.002,0.01-0.004,0.014-0.006c0.006-0.002,0.012-0.005,0.018-0.007c0.002-0.002,0.006-0.003,0.008-0.004
				c0.008-0.004,0.019-0.009,0.026-0.013c0.001,0,0.002-0.001,0.003-0.001c3.895-1.812,7.484-4.392,10.934-7.178
				c0.982-0.793,1.957-1.604,2.925-2.422c3.424-2.888,6.772-5.85,10.265-8.302c0.016-0.011,0.03-0.022,0.047-0.032
				c0.051-0.037,0.104-0.073,0.155-0.109c1.017-0.712,2.035-1.416,3.062-2.113c5.541-3.767,11.527-7.467,18.123-10.354
				c0.375-0.164,0.752-0.324,1.133-0.483c0.201-0.085,0.404-0.169,0.607-0.252C275.027,42.591,284.235,40.819,294.234,40.819
				 M303.702,45.343c-3.322-0.354-6.471-0.52-9.468-0.52c-5.317,0-10.155,0.521-14.644,1.451c-0.414,0.086-0.826,0.175-1.236,0.268
				c-12.663,2.869-22.535,8.98-32.137,15.662c-0.299,0.206-0.596,0.413-0.891,0.621c-0.316,0.221-0.635,0.449-0.953,0.682
				c-0.002,0.002-0.004,0.004-0.008,0.006c-0.002,0.002-0.006,0.005-0.008,0.007c-1.898,1.392-3.789,2.954-5.738,4.604
				c-3.34,2.823-6.81,5.872-10.594,8.557c-1.912,1.357-3.906,2.62-6.013,3.709c-2.089,1.08-4.285,1.987-6.61,2.635
				c-0.001,0.001-0.001,0.001-0.002,0.001c-0.009,0.002-0.018,0.004-0.023,0.007c-0.002,0-0.002,0-0.004,0
				c-0.008,0.003-0.018,0.005-0.025,0.008c-0.008,0.002-0.016,0.004-0.021,0.006c-0.002,0-0.004,0.001-0.008,0.002
				c-0.004,0.001-0.008,0.002-0.012,0.003c-1.568,0.431-3.252,0.664-5.008,0.699c-0.152,0.003-0.305,0.004-0.457,0.004l0,0
				c-0.789,0-1.584-0.039-2.383-0.113c-0.004,0-0.006-0.001-0.01-0.001s-0.007-0.001-0.011-0.001
				c-0.819-0.076-1.647-0.191-2.481-0.341c-0.73-0.131-1.463-0.288-2.197-0.468c-4.176-1.028-8.406-2.815-12.553-4.981
				c-6.217-3.252-12.244-7.366-17.467-11.146c-2.61-1.89-5.018-3.696-7.136-5.263c-2.116-1.567-3.948-2.899-5.367-3.82
				c-1.033-0.672-2.199-1.484-3.496-2.329c-1.943-1.267-4.176-2.603-6.571-3.606c-1.196-0.504-2.434-0.924-3.691-1.217
				c-1.259-0.293-2.539-0.459-3.833-0.459c-1.269,0.001-2.549,0.159-3.854,0.521c-0.014,0.004-0.027,0.008-0.042,0.012
				c-4.401,1.234-7.997,4.274-10.687,9.037c-5.021,8.888-6.065,22.641-2.698,35.171c0.045,0.169,0.091,0.337,0.138,0.505
				l0.001,0.003l0.023,0.091c0.563,2.48,1.259,5.54,2.179,8.636c0.133,0.446,0.27,0.893,0.41,1.335
				c1.05,3.312,2.347,6.451,3.956,8.901l0.094,0.159c0.147,0.277,0.296,0.547,0.447,0.812c1.032,1.802,2.146,3.29,3.377,4.708
				c0.832,0.957,1.721,1.883,2.669,2.837c0.295,0.297,0.594,0.596,0.898,0.897c0.158,0.156,0.318,0.315,0.479,0.478
				c0.226,0.224,0.453,0.448,0.683,0.678c4.305,4.293,8.37,6.38,12.43,6.38c8.383,0,16.126-8.908,24.322-18.34
				c1.52-1.749,3.05-3.509,4.597-5.229c0.447-0.495,0.896-0.988,1.348-1.478c3.637-3.939,7.416-7.618,11.527-10.367
				c2.057-1.373,4.198-2.512,6.45-3.312c1.823-0.648,3.722-1.07,5.681-1.207c0.457-0.031,0.918-0.047,1.383-0.047
				c1.563,0,3.151,0.188,4.719,0.558c7.574,1.794,14.894,5.346,22.199,9.607c2.904,1.694,5.809,3.505,8.723,5.366
				c1.895,1.21,3.799,2.446,5.72,3.693c17.263,11.203,35.112,22.787,56.188,22.787c0.494,0,0.99-0.007,1.486-0.021
				c4.688-0.121,9.535-0.822,14.592-2.244c0.406-0.113,0.811-0.231,1.217-0.354c0.258-0.078,0.518-0.159,0.773-0.243
				c3.858-1.253,7.225-3.007,10.127-5.156c4.641-3.438,8.104-7.896,10.424-12.991c0.619-1.357,1.154-2.76,1.608-4.198
				c2.755-8.73,2.445-18.548-0.618-27.812c-0.013-0.034-0.023-0.069-0.035-0.104c-1.688-5.074-4.217-10.016-7.58-14.552
				c-1.185-1.602-2.734-3.282-4.517-4.941c-1.185-1.102-2.469-2.194-3.817-3.253c-4.42-3.479-9.623-6.684-14.467-8.775
				c-0.162-0.068-0.322-0.138-0.482-0.204c-0.094-0.038-0.186-0.077-0.279-0.115c-0.893-0.366-1.783-0.699-2.686-1.002
				c-0.004-0.001-0.008-0.003-0.012-0.004l0,0c-1.908-0.642-3.816-1.135-5.812-1.514c-0.691-0.132-1.398-0.25-2.121-0.356
				C303.772,45.353,303.737,45.348,303.702,45.343"/>
		</g>
	</g>
	<polygon fill="#FFFFFF" points="179.927,110.001 185.584,103.846 188.48,106.603 182.706,112.898 	"/>
	<polygon fill="#FFFFFF" points="181.625,68.034 190.178,73.309 186.243,75.647 178.369,70.632 	"/>
	<g>
		<g>
			<defs>
				<path id="SVGID_5_" d="M179.768,107.143l3.356-3.777l5.396,6.015l-3.237,3.877L179.768,107.143z M177.968,72.79l7.295-4.437
					l4.657,2.777l-7.135,4.756L177.968,72.79z M0.667,141.76h256.021V33.82H0.667V141.76z"/>
			</defs>
			<clipPath id="SVGID_6_">
				<use xlink:href="#SVGID_5_"  overflow="visible"/>
			</clipPath>
			<path clip-path="url(#SVGID_6_)" fill="#008FC5" d="M74.094,40.819L74.094,40.819c-3.196,0-6.538,0.184-9.933,0.547l-0.074,0.009
				c-0.977,0.141-1.927,0.303-2.855,0.487c-2.524,0.502-4.962,1.184-7.407,2.097c-0.587,0.219-1.173,0.451-1.759,0.696
				c-1.831,0.766-3.819,1.738-5.864,2.873c-0.306,0.17-0.613,0.343-0.921,0.52c-3.471,1.996-6.98,4.392-10.139,6.97
				c-3.159,2.581-5.967,5.338-8.032,8.12c-0.281,0.381-0.559,0.764-0.828,1.148c-5.996,8.531-9.422,18.468-9.989,28.254
				c-0.055,0.959-0.083,1.917-0.083,2.871c0,4.312,0.564,8.55,1.704,12.576c0.048,0.172,0.099,0.344,0.149,0.515
				c0.125,0.423,0.257,0.843,0.396,1.261c0.133,0.402,0.272,0.802,0.416,1.196c1.437,3.932,3.458,7.613,6.075,10.889
				c4.718,5.899,11.162,10.223,18.92,12.565c5.823,1.76,11.719,2.696,17.542,2.784c0.302,0.005,0.604,0.007,0.904,0.007h0.006
				c0.551,0,1.1-0.007,1.646-0.022c8.97-0.242,18.112-2.466,27.847-6.771c5.332-2.36,10.461-5.168,15.443-8.151
				c7.71-4.618,15.074-9.657,22.267-14.147c8.323-5.198,16.424-9.672,24.604-11.965c0.648-0.182,1.296-0.35,1.943-0.502
				c1.304-0.309,2.563-0.451,3.796-0.451c2.423,0.001,4.75,0.55,7.062,1.552c2.02,0.877,4.02,2.104,5.999,3.601
				c3.464,2.618,6.853,6.057,10.193,9.759c2.508,2.775,4.992,5.697,7.486,8.531c1.872,2.125,3.75,4.198,5.658,6.125
				c2.863,2.889,5.789,5.45,8.9,7.332c1.559,0.94,3.164,1.709,4.832,2.244s3.398,0.835,5.174,0.835h0.002
				c1.236,0.001,2.49-0.145,3.755-0.446c1.896-0.453,3.804-1.262,5.717-2.437c1.915-1.177,3.837-2.721,5.788-4.665
				c0.542-0.542,1.076-1.07,1.604-1.597c2.768-2.765,5.369-5.523,7.555-9.576c0.021-0.038,0.041-0.076,0.062-0.115
				c0.17-0.26,0.334-0.524,0.494-0.793c1.807-3.015,3.166-6.625,4.229-10.157c0.938-3.127,1.67-6.272,2.314-9.104
				c0.43-1.545,0.797-3.112,1.1-4.693c0.736-3.828,1.104-7.717,1.107-11.519v-0.159c-0.011-8.092-1.654-15.789-4.824-21.707
				c-0.201-0.376-0.41-0.745-0.625-1.108c-3.176-5.372-7.607-8.97-12.847-10.423c-1.593-0.441-3.249-0.666-4.924-0.666
				c-0.276,0-0.55,0.006-0.823,0.018c-1.887,0.081-3.699,0.431-5.411,0.943c-2.938,0.883-5.591,2.244-7.882,3.613
				c-1.023,0.612-1.975,1.227-2.844,1.803c-0.459,0.305-0.898,0.601-1.316,0.882c-0.535,0.361-1.043,0.703-1.498,0.998
				c-1.922,1.249-4.382,3.077-7.23,5.193c-10.877,8.082-27.315,20.295-40.188,20.295c-0.162,0-0.323-0.002-0.482-0.006
				c-1.385-0.034-2.706-0.218-3.958-0.564c-1.545-0.427-3.043-0.99-4.505-1.667c-0.003-0.001-0.005-0.002-0.008-0.004
				c-0.005-0.002-0.009-0.004-0.014-0.006c-0.005-0.002-0.012-0.005-0.017-0.007c-0.003-0.002-0.006-0.003-0.008-0.004
				c-0.009-0.004-0.019-0.009-0.027-0.013c-0.001,0-0.002-0.001-0.003-0.001c-3.894-1.812-7.483-4.392-10.934-7.178
				c-0.982-0.793-1.956-1.604-2.924-2.422c-3.424-2.888-6.772-5.85-10.265-8.302c-0.015-0.011-0.029-0.022-0.046-0.032
				c-0.052-0.037-0.104-0.073-0.155-0.109c-1.017-0.712-2.035-1.416-3.062-2.113c-5.542-3.767-11.527-7.467-18.124-10.354
				c-0.375-0.164-0.752-0.324-1.132-0.483c-0.202-0.085-0.405-0.169-0.608-0.252C93.3,42.591,84.092,40.819,74.094,40.819
				 M64.625,45.343c3.322-0.354,6.472-0.52,9.468-0.52c5.317,0,10.155,0.521,14.644,1.451c0.415,0.086,0.827,0.175,1.237,0.268
				c12.662,2.869,22.534,8.98,32.137,15.662c0.297,0.206,0.594,0.413,0.89,0.621c0.317,0.221,0.634,0.449,0.952,0.682
				c0.003,0.002,0.005,0.004,0.008,0.006s0.006,0.005,0.008,0.007c1.898,1.392,3.789,2.954,5.739,4.604
				c3.34,2.823,6.809,5.872,10.593,8.557c1.912,1.357,3.907,2.62,6.014,3.709c2.088,1.08,4.285,1.987,6.609,2.635
				c0.001,0.001,0.001,0.001,0.002,0.001c0.009,0.002,0.017,0.004,0.024,0.007c0.001,0,0.002,0,0.003,0
				c0.009,0.003,0.019,0.005,0.027,0.008c0.007,0.002,0.014,0.004,0.021,0.006c0.002,0,0.005,0.001,0.008,0.002
				c0.005,0.001,0.009,0.002,0.013,0.003c1.567,0.431,3.251,0.664,5.008,0.699c0.152,0.003,0.304,0.004,0.456,0.004h0.001
				c0.789,0,1.584-0.039,2.382-0.113c0.003,0,0.005-0.001,0.009-0.001s0.007-0.001,0.012-0.001c0.819-0.076,1.647-0.191,2.48-0.341
				c0.731-0.131,1.464-0.288,2.198-0.468c4.175-1.028,8.407-2.815,12.553-4.981c6.216-3.252,12.243-7.366,17.467-11.146
				c2.608-1.89,5.018-3.696,7.136-5.263c2.116-1.567,3.948-2.899,5.366-3.82c1.033-0.672,2.199-1.484,3.496-2.329
				c1.942-1.267,4.176-2.603,6.57-3.606c1.197-0.504,2.436-0.924,3.692-1.217c1.259-0.293,2.538-0.459,3.833-0.459
				c1.27,0.001,2.549,0.159,3.854,0.521c0.014,0.004,0.027,0.008,0.043,0.012c4.4,1.234,7.996,4.274,10.687,9.037
				c5.021,8.888,6.065,22.641,2.698,35.171c-0.045,0.169-0.092,0.337-0.14,0.505l-0.001,0.003l-0.021,0.091
				c-0.564,2.48-1.26,5.54-2.18,8.636c-0.134,0.446-0.27,0.893-0.41,1.335c-1.049,3.312-2.348,6.451-3.955,8.901l-0.094,0.159
				c-0.148,0.277-0.298,0.547-0.447,0.812c-1.033,1.802-2.146,3.29-3.377,4.708c-0.832,0.957-1.723,1.883-2.67,2.837
				c-0.295,0.297-0.595,0.596-0.897,0.897c-0.159,0.156-0.319,0.315-0.479,0.478c-0.226,0.224-0.453,0.448-0.683,0.678
				c-4.306,4.293-8.371,6.38-12.431,6.38c-8.383,0-16.125-8.908-24.321-18.34c-1.521-1.749-3.05-3.509-4.597-5.229
				c-0.447-0.495-0.896-0.988-1.348-1.478c-3.637-3.939-7.417-7.618-11.528-10.367c-2.056-1.373-4.198-2.512-6.449-3.312
				c-1.824-0.648-3.723-1.07-5.682-1.207c-0.457-0.031-0.918-0.047-1.383-0.047c-1.563,0-3.151,0.188-4.719,0.558
				c-7.573,1.794-14.893,5.346-22.198,9.607c-2.904,1.694-5.808,3.505-8.723,5.366c-1.894,1.21-3.798,2.446-5.72,3.693
				c-17.263,11.203-35.112,22.787-56.188,22.787c-0.495,0-0.991-0.007-1.487-0.021c-4.686-0.121-9.535-0.822-14.591-2.244
				c-0.406-0.113-0.811-0.231-1.216-0.354c-0.259-0.078-0.519-0.159-0.774-0.243c-3.858-1.253-7.225-3.007-10.128-5.156
				c-4.64-3.438-8.103-7.896-10.424-12.991c-0.618-1.357-1.154-2.76-1.608-4.198c-2.755-8.73-2.445-18.548,0.618-27.812
				c0.013-0.034,0.024-0.069,0.035-0.104c1.688-5.074,4.217-10.016,7.58-14.552c1.185-1.602,2.735-3.282,4.517-4.941
				c1.184-1.102,2.47-2.194,3.818-3.253c4.419-3.479,9.622-6.684,14.467-8.775c0.162-0.068,0.322-0.138,0.482-0.204
				c0.093-0.038,0.186-0.077,0.279-0.115c0.893-0.366,1.784-0.699,2.685-1.002c0.004-0.001,0.008-0.003,0.012-0.004h0.001
				c1.907-0.642,3.817-1.135,5.812-1.514c0.692-0.132,1.399-0.25,2.122-0.356C64.557,45.353,64.59,45.348,64.625,45.343"/>
		</g>
	</g>
</g>
</svg>
