<?xml version="1.0" encoding="utf-8"?>
<!-- Generator: Adobe Illustrator 15.0.2, SVG Export Plug-In . SVG Version: 6.00 Build 0)  -->
<!DOCTYPE svg PUBLIC "-//W3C//DTD SVG 1.1//EN" "http://www.w3.org/Graphics/SVG/1.1/DTD/svg11.dtd" [
	<!ENTITY ns_extend "http://ns.adobe.com/Extensibility/1.0/">
	<!ENTITY ns_ai "http://ns.adobe.com/AdobeIllustrator/10.0/">
	<!ENTITY ns_graphs "http://ns.adobe.com/Graphs/1.0/">
	<!ENTITY ns_vars "http://ns.adobe.com/Variables/1.0/">
	<!ENTITY ns_imrep "http://ns.adobe.com/ImageReplacement/1.0/">
	<!ENTITY ns_sfw "http://ns.adobe.com/SaveForWeb/1.0/">
	<!ENTITY ns_custom "http://ns.adobe.com/GenericCustomNamespace/1.0/">
	<!ENTITY ns_adobe_xpath "http://ns.adobe.com/XPath/1.0/">
]>
<svg version="1.1" id="Layer_1" xmlns:x="&ns_extend;" xmlns:i="&ns_ai;" xmlns:graph="&ns_graphs;"
	 xmlns="http://www.w3.org/2000/svg" xmlns:xlink="http://www.w3.org/1999/xlink" x="0px" y="0px" width="35.125px"
	 height="35.125px" viewBox="7.5 7.5 35.125 35.125" enable-background="new 7.5 7.5 35.125 35.125" xml:space="preserve">
<metadata>
	<sfw  xmlns="&ns_sfw;">
		<slices></slices>
		<sliceSourceBounds  y="733.357" x="984.562" height="34.16" width="30" bottomLeftOrigin="true"></sliceSourceBounds>
	</sfw>
</metadata>
<path fill="#231F20" d="M36.74,42.143l-4.677-4.084H18.05l-4.673,4.084 M40.062,17.702c0,0.146-0.021,3.649-1.712,7.188
	c-1.41,2.951-4.23,6.396-9.784,7.195v4.896h-7.009v-4.896c-5.556-0.8-8.375-4.244-9.784-7.195c-1.692-3.539-1.711-7.042-1.711-7.188
	c0-0.712,0.579-1.288,1.289-1.288h2.774c-0.718-2.565-1.13-5.418-1.13-8.432h24.131c0,3.014-0.414,5.863-1.127,8.432h2.774
	C39.482,16.414,40.062,16.99,40.062,17.702z M21.558,27.168c-2.727-1.373-5.043-4.307-6.576-8.176h-2.25
	c0.327,2.802,1.862,9.218,8.826,10.46V27.168z M24.919,26.186c-4.29-2.029-7.528-8.492-7.971-16.367h-1.946
	C15.324,18.867,19.637,26.06,24.919,26.186z M37.385,18.992h-2.241c-1.536,3.869-3.851,6.803-6.577,8.176v2.284
	c3.426-0.594,5.936-2.48,7.459-5.671C36.888,21.971,37.242,20.161,37.385,18.992z"/>
</svg>
