<?xml version="1.0" encoding="utf-8"?>
<!-- Generator: Adobe Illustrator 15.0.2, SVG Export Plug-In . SVG Version: 6.00 Build 0)  -->
<!DOCTYPE svg PUBLIC "-//W3C//DTD SVG 1.1//EN" "http://www.w3.org/Graphics/SVG/1.1/DTD/svg11.dtd" [
	<!ENTITY ns_extend "http://ns.adobe.com/Extensibility/1.0/">
	<!ENTITY ns_ai "http://ns.adobe.com/AdobeIllustrator/10.0/">
	<!ENTITY ns_graphs "http://ns.adobe.com/Graphs/1.0/">
	<!ENTITY ns_vars "http://ns.adobe.com/Variables/1.0/">
	<!ENTITY ns_imrep "http://ns.adobe.com/ImageReplacement/1.0/">
	<!ENTITY ns_sfw "http://ns.adobe.com/SaveForWeb/1.0/">
	<!ENTITY ns_custom "http://ns.adobe.com/GenericCustomNamespace/1.0/">
	<!ENTITY ns_adobe_xpath "http://ns.adobe.com/XPath/1.0/">
]>
<svg version="1.1" id="Layer_1" xmlns:x="&ns_extend;" xmlns:i="&ns_ai;" xmlns:graph="&ns_graphs;"
	 xmlns="http://www.w3.org/2000/svg" xmlns:xlink="http://www.w3.org/1999/xlink" x="0px" y="0px" width="1011.833px"
	 height="449.086px" viewBox="0 0 1011.833 449.086" enable-background="new 0 0 1011.833 449.086" xml:space="preserve">
<metadata>
	<sfw  xmlns="&ns_sfw;">
		<slices></slices>
		<sliceSourceBounds  y="-8942" x="595" height="16383" width="1335.416" bottomLeftOrigin="true"></sliceSourceBounds>
	</sfw>
</metadata>
<g>
	<polygon fill="#00AEEF" points="771.77,396.926 771.77,399.164 775.293,399.164 775.293,425.311 771.77,425.311 771.77,427.551 
		777.926,427.551 777.926,396.926 	"/>
	<g>
		<defs>
			<rect id="SVGID_1_" y="0.004" width="1009.542" height="427.547"/>
		</defs>
		<clipPath id="SVGID_2_">
			<use xlink:href="#SVGID_1_"  overflow="visible"/>
		</clipPath>
		<path clip-path="url(#SVGID_2_)" fill="#FFFFFF" d="M748.588,424.902h8.143c7.09-0.168,10.811-4.055,10.811-11.77
			s-3.721-11.602-10.811-11.77h-8.143V424.902z M750.827,403.273h4.781c6.762-0.031,9.697,2.838,9.697,9.859
			s-2.936,9.891-9.697,9.859h-4.781V403.273z M726.075,424.902h16.414v-1.91h-14.18v-9.301h13.121v-1.908h-13.121v-8.51h14.012
			v-1.91h-16.246V424.902z M709.688,424.902h2.6l8.736-23.539h-2.371l-7.584,21.07h-0.064l-7.646-21.07h-2.406L709.688,424.902z
			 M685.917,424.902h15.428v-1.91h-13.191v-21.629h-2.236V424.902z M659.506,413.133c0-5.145,2.639-10.354,8.871-10.354
			c6.197,0,8.834,5.209,8.834,10.354s-2.637,10.354-8.834,10.354C662.145,423.486,659.506,418.277,659.506,413.133 M657.266,413.133
			c0,6.432,3.691,12.264,11.111,12.264c7.387,0,11.076-5.832,11.076-12.264c0-6.428-3.689-12.264-11.076-12.264
			C660.958,400.869,657.266,406.705,657.266,413.133 M642.133,424.902h2.604l8.736-23.539h-2.375l-7.58,21.07h-0.064l-7.648-21.07
			h-2.408L642.133,424.902z M609.793,424.902h2.24v-19.914h0.064l13.719,19.914h2.5v-23.539h-2.236v19.914h-0.068l-13.715-19.914
			h-2.504V424.902z M599.706,424.902h2.238v-23.539h-2.238V424.902z M575.704,403.273h8.209v21.629h2.24v-21.629h8.209v-1.91
			h-18.658V403.273z M555.727,424.902h16.414v-1.91h-14.176v-9.301h13.123v-1.908h-13.123v-8.51h14.01v-1.91h-16.248V424.902z
			 M548.436,412.938h-9.988v1.908h8.012c0.102,4.98-2.934,8.641-8.145,8.641c-6.23,0-8.869-5.209-8.869-10.352
			c0-5.145,2.639-10.355,8.869-10.355c4.486,0,7.289,3.199,7.586,5.902h2.236c-0.855-5.145-4.875-7.812-9.822-7.812
			c-7.42,0-11.105,5.836-11.105,12.266c0,6.426,3.686,12.262,11.105,12.262c3.396,0,6.564-1.414,8.145-4.779h0.066l0.299,4.285
			h1.611V412.938z"/>
	</g>
	<path fill="#00AEEF" d="M502.944,396.926v2.238h3.527v26.146h-3.527v2.24h6.164v-30.625H502.944z M516.823,396.926v30.625h6.162
		v-2.24h-3.529v-26.146h3.529v-2.238H516.823z"/>
	<g>
		<defs>
			<rect id="SVGID_3_" y="0.004" width="1009.542" height="427.547"/>
		</defs>
		<clipPath id="SVGID_4_">
			<use xlink:href="#SVGID_3_"  overflow="visible"/>
		</clipPath>
		<path clip-path="url(#SVGID_4_)" fill="#FFFFFF" d="M482.801,424.898h16.412v-1.904H485.04v-9.301h13.121v-1.91H485.04v-8.51
			h14.01v-1.906h-16.248V424.898z M460.081,403.273h8.377c3.363,0,5.078,1.816,5.078,4.686s-2.342,4.586-5.078,4.586h-8.377V403.273
			z M457.844,424.898h2.236v-10.449h8.51c4.254-0.164,4.518,3.498,4.717,6.791c0.062,0.99,0.062,2.738,0.625,3.658h2.469
			c-0.988-1.184-0.988-4.416-1.088-6.031c-0.164-2.803-1.053-4.91-4.119-5.307v-0.064c3.035-0.592,4.58-3.033,4.58-6
			c0-4.258-3.26-6.129-7.152-6.129h-10.777V424.898z M442.147,403.604l4.551,12.07h-9.262L442.147,403.604z M431.502,424.898h2.404
			l2.836-7.314h10.713l2.869,7.314h2.406l-9.232-23.531h-2.504L431.502,424.898z M407.93,424.898h2.236v-11.402h13.982v11.402h2.24
			v-23.531h-2.24v10.219h-13.982v-10.219h-2.236V424.898z M383.004,417.156c-0.262,5.738,3.822,8.24,9.395,8.24
			c8.342,0,8.998-5.107,8.998-6.725c0-3.857-2.764-5.309-6.096-6.197l-5.738-1.418c-1.912-0.459-3.562-1.385-3.562-3.596
			c0-3.494,2.836-4.684,5.902-4.684c3.334,0,6.301,1.816,6.434,5.41h2.236c0.031-4.814-4.051-7.314-8.701-7.314
			c-6.627,0-8.107,4.312-8.107,6.623c0,3.656,2.535,4.979,5.305,5.672l5.242,1.283c2.178,0.529,4.85,1.582,4.85,4.254
			c0,3.43-3.762,4.783-6.234,4.783c-4.287,0-7.779-1.484-7.686-6.332H383.004z"/>
	</g>
	<path fill="#00AEEF" d="M358.809,396.926v2.238h3.527v26.146h-3.527v2.24h6.158v-30.625H358.809z M372.686,396.926v30.625h6.16
		v-2.24h-3.527v-26.146h3.527v-2.238H372.686z"/>
	<g>
		<defs>
			<rect id="SVGID_5_" y="0.004" width="1009.542" height="427.547"/>
		</defs>
		<clipPath id="SVGID_6_">
			<use xlink:href="#SVGID_5_"  overflow="visible"/>
		</clipPath>
		<path clip-path="url(#SVGID_6_)" fill="#FFFFFF" d="M334.971,424.902h2.236v-19.914h0.066l13.719,19.914h2.502v-23.535h-2.238
			v19.91h-0.066l-13.717-19.91h-2.502V424.902z M312.286,403.273h8.375c3.365,0,5.08,1.814,5.08,4.684
			c0,2.871-2.342,4.584-5.08,4.584h-8.375V403.273z M310.045,424.902h2.24v-10.451h8.508c4.254-0.166,4.518,3.492,4.715,6.791
			c0.066,0.988,0.066,2.736,0.627,3.66h2.469c-0.988-1.186-0.988-4.42-1.088-6.035c-0.164-2.801-1.053-4.912-4.117-5.305v-0.066
			c3.031-0.592,4.578-3.031,4.578-6c0-4.254-3.26-6.129-7.15-6.129h-10.781V424.902z M294.352,403.604l4.549,12.07h-9.264
			L294.352,403.604z M283.704,424.902h2.406l2.836-7.32h10.713l2.867,7.32h2.406l-9.229-23.535h-2.506L283.704,424.902z
			 M263.792,424.902h16.414v-1.91H266.03v-9.301h13.121v-1.91H266.03v-8.508h14.014v-1.906h-16.252V424.902z M243.122,424.902
			h15.424v-1.91h-13.188v-21.625h-2.236V424.902z"/>
	</g>
	<polygon fill="#00AEEF" points="231.616,396.926 231.616,427.551 237.776,427.551 237.776,425.311 234.249,425.311 
		234.249,399.164 237.776,399.164 237.776,396.926 	"/>
	<polygon fill="#00AEEF" points="841.891,337.311 841.891,339.672 846.262,339.672 846.262,375.98 841.891,375.98 841.891,378.348 
		849.073,378.348 849.073,337.311 	"/>
	<g>
		<defs>
			<rect id="SVGID_7_" y="0.004" width="1009.542" height="427.547"/>
		</defs>
		<clipPath id="SVGID_8_">
			<use xlink:href="#SVGID_7_"  overflow="visible"/>
		</clipPath>
		<path clip-path="url(#SVGID_8_)" fill="#F26522" d="M814.461,373.705h22.211v-2.588h-19.178v-12.576h17.75v-2.59h-17.75v-11.506
			h18.957v-2.588h-21.99V373.705z M783.729,344.445h10.434c4.729,0,7.184,2.006,7.184,5.977c0,2.988-2.318,5.396-7.184,5.396
			h-10.434V344.445z M780.694,373.705h13.469c10.348,0,11.42-6.023,11.42-9.057c0-4.146-2.629-7.223-6.734-7.76v-0.09
			c3.301-0.713,5.533-3.793,5.533-7.137c0-5.932-4.865-7.805-10.219-7.805h-13.469V373.705z M783.729,358.404h10.434
			c5.309,0,8.387,2.098,8.387,6.156c0,5.082-3.879,6.604-8.387,6.557h-10.434V358.404z M769.143,368.977h-3.746v4.729h3.746V368.977
			z M742.02,344.445h10.439c4.193,0,7.092,2.139,7.092,6.51c0,4.373-2.898,6.514-7.092,6.514H742.02V344.445z M738.991,373.705
			h3.029v-13.65h11.111c5.705,0,9.453-3.344,9.453-9.1c0-5.752-3.748-9.098-9.453-9.098h-14.141V373.705z M697.731,373.705h3.033
			v-27.521h0.09l10.93,27.521h2.852l10.887-27.521h0.086v27.521h3.035v-31.848h-4.463l-10.973,27.922l-11.018-27.922h-4.459V373.705
			z M676.586,344.891l6.156,16.326h-12.533L676.586,344.891z M662.182,373.705h3.256l3.836-9.902h14.496l3.879,9.902h3.256
			l-12.486-31.848h-3.391L662.182,373.705z M656.606,351.492c-0.805-6.689-6.781-10.305-12.805-10.305
			c-10.033,0-15.027,7.895-15.027,16.594c0,8.697,4.994,16.592,15.027,16.592c7.453,0,12.4-4.996,13.25-12.799h-3.035
			c-0.576,5.662-4.322,10.213-10.215,10.213c-8.426,0-11.996-7.047-11.996-14.006s3.57-14.006,11.996-14.006
			c4.643,0,8.699,2.809,9.771,7.717H656.606z M602.319,373.705h20.879v-2.588h-17.844v-29.26h-3.035V373.705z M581.092,344.891
			l6.154,16.326h-12.533L581.092,344.891z M566.682,373.705h3.258l3.834-9.902h14.498l3.883,9.902h3.256l-12.492-31.848h-3.387
			L566.682,373.705z M544.428,344.445h10.434c4.193,0,7.092,2.139,7.092,6.51c0,4.373-2.898,6.514-7.092,6.514h-10.434V344.445z
			 M541.393,373.705h3.035v-13.65h11.105c5.709,0,9.455-3.344,9.455-9.1c0-5.752-3.746-9.098-9.455-9.098h-14.141V373.705z
			 M506.512,362.242c0,6.555,3.525,12.131,12.354,12.131c8.877,0,12.398-5.576,12.398-12.131v-20.385h-3.029v19.717
			c0.043,7.402-3.479,10.213-9.369,10.213c-5.842,0-9.365-2.811-9.32-10.213v-19.717h-3.033V362.242z M476.092,344.445h11.328
			c4.551,0,6.869,2.453,6.869,6.334c0,3.879-3.166,6.197-6.869,6.197h-11.328V344.445z M473.059,373.705h3.033v-14.139H487.6
			c5.756-0.223,6.109,4.729,6.379,9.188c0.088,1.338,0.088,3.701,0.848,4.951h3.346c-1.34-1.607-1.34-5.977-1.473-8.162
			c-0.223-3.793-1.428-6.645-5.576-7.182v-0.09c4.105-0.803,6.201-4.104,6.201-8.117c0-5.754-4.418-8.297-9.682-8.297h-14.584
			V373.705z M438.491,373.705h11.016c9.592-0.223,14.633-5.486,14.633-15.924s-5.041-15.699-14.633-15.924h-11.016V373.705z
			 M441.524,344.445h6.467c9.145-0.045,13.113,3.834,13.113,13.336c0,9.5-3.969,13.383-13.113,13.336h-6.467V344.445z
			 M426.94,368.977h-3.746v4.729h3.746V368.977z M393.928,363.58l11.777-16.996h0.09v16.996H393.928z M391.387,365.943h14.408v7.762
			h2.586v-7.762h4.686v-2.363h-4.686v-21.096h-2.541l-14.453,20.738V365.943z M365.563,350.512h8.252v23.193h2.809v-31.221h-2.275
			c-0.846,5.752-3.881,5.84-8.785,6.02V350.512z M344.821,342.213c-9.1,0-10.885,8.789-10.885,16.105
			c0,7.268,1.785,16.055,10.885,16.055s10.883-8.787,10.883-16.102C355.704,351.002,353.92,342.213,344.821,342.213 M344.821,344.58
			c7.137,0,8.074,8.295,8.074,13.691c0,5.443-0.938,13.738-8.074,13.738s-8.074-8.295-8.074-13.738
			C336.747,352.875,337.684,344.58,344.821,344.58 M325.774,371.117h-17.352c0.76-4.193,6.334-6.957,9.365-9.01
			c4.061-2.633,7.852-5.889,7.852-11.105c0-5.799-4.236-8.789-9.676-8.789c-6.781,0-10.127,4.643-9.992,11.064h2.809
			c-0.088-4.596,1.918-8.697,7.047-8.697c3.791,0,7.004,2.318,7.004,6.375c0,2.498-0.893,4.15-2.588,5.891
			c-5.307,5.305-14.809,7.58-15.031,16.859h20.562V371.117z M274.567,344.445h11.109v29.26h3.031v-29.26h11.107v-2.588h-25.248
			V344.445z M242.542,373.705h3.031v-26.941h0.092l18.555,26.941h3.393v-31.848h-3.035v26.939h-0.088l-18.557-26.939h-3.391V373.705
			z M212.122,373.705h22.215v-2.588h-19.18v-12.576h17.752v-2.59h-17.752v-11.506h18.955v-2.588h-21.99V373.705z M202.266,357.514
			H188.75v2.584h10.838c0.135,6.738-3.969,11.689-11.018,11.689c-8.432,0-11.999-7.047-11.999-14.006s3.567-14.006,11.999-14.006
			c6.064,0,9.857,4.328,10.26,7.982h3.033c-1.162-6.955-6.604-10.57-13.293-10.57c-10.034,0-15.031,7.895-15.031,16.594
			c0,8.697,4.997,16.592,15.031,16.592c4.594,0,8.879-1.918,11.018-6.469h0.09l0.398,5.801h2.189V357.514z"/>
	</g>
	<polygon fill="#00AEEF" points="167.651,378.348 167.651,375.982 163.282,375.982 163.282,339.674 167.651,339.674 
		167.651,337.307 160.469,337.307 160.469,378.348 	"/>
	<g>
		<defs>
			<path id="SVGID_9_" d="M652.907,203.457l4.561-13.58l19.461,11.656l-4.947,14.018L652.907,203.457z M335.948,197.975
				l16.09-10.295l6.783,19.939l-14.255,9.251L335.948,197.975z M658.127,76.523l18.25-12.865l5.828,12.865l-18.471,14.293
				L658.127,76.523z M333.071,82.598l8.932-20.889l13.334,9.482l-9.207,20.756L333.071,82.598z M307.565,296.92h704.268V0H307.565
				V296.92z"/>
		</defs>
		<clipPath id="SVGID_10_">
			<use xlink:href="#SVGID_9_"  overflow="visible"/>
		</clipPath>
		<path clip-path="url(#SVGID_10_)" fill="#FFFFFF" d="M845.227,22.125c7.104,1.408,13.766,3.297,20.377,5.766
			C858.879,25.379,852.172,23.506,845.227,22.125 M809.842,30.268c8.248,0,16.908,0.457,26.047,1.43
			c0.098,0.014,0.195,0.029,0.291,0.043c-0.096-0.014-0.191-0.027-0.285-0.041C826.983,30.748,818.219,30.268,809.842,30.268
			c-15.936,0-30.371,1.711-43.68,4.73c1.129-0.256,2.262-0.506,3.4-0.742C781.911,31.705,795.219,30.268,809.842,30.268
			 M842.014,32.723c5.492,1.043,10.744,2.396,15.99,4.158C852.84,35.148,847.581,33.779,842.014,32.723 M395.12,33.566
			c17.686,0.746,33.18,10.055,44.389,17.494c-2.389-1.586-5.006-3.277-7.822-4.959c-6.303-3.768-13.594-7.51-21.684-9.938
			C405.293,34.752,400.309,33.787,395.12,33.566 M732.485,34.145c-0.559,0.23-1.115,0.459-1.674,0.693
			c-1.045,0.438-2.082,0.883-3.113,1.334c1.031-0.451,2.068-0.896,3.113-1.334C731.37,34.604,731.926,34.373,732.485,34.145
			 M858.006,36.881c0.012,0.006,0.021,0.008,0.033,0.012C858.028,36.889,858.018,36.887,858.006,36.881 M886.573,37.705
			c19.281,10.697,40.434,26.639,52.521,42.945c-5.684-7.658-13.404-15.24-22.098-22.34c-8.688-7.096-18.342-13.68-27.891-19.172
			C888.26,38.654,887.42,38.176,886.573,37.705 M865.424,39.65c0.258,0.105,0.512,0.211,0.768,0.318
			c0.441,0.184,0.881,0.369,1.328,0.562c-0.443-0.193-0.885-0.379-1.328-0.562C865.936,39.861,865.682,39.756,865.424,39.65
			 M392.854,44.535c3.561,0,7.082,0.457,10.545,1.262c3.461,0.807,6.863,1.961,10.156,3.342c6.59,2.766,12.73,6.439,18.076,9.924
			c3.566,2.324,6.775,4.559,9.617,6.406c3.902,2.537,8.941,6.197,14.762,10.508c5.828,4.314,12.451,9.281,19.631,14.479
			c14.369,10.396,30.947,21.717,48.045,30.66c11.406,5.957,23.047,10.875,34.531,13.703c2.02,0.496,4.035,0.93,6.047,1.287
			c-35.984-6.438-76.1-36.242-103.695-56.744c-7.686-5.711-14.326-10.645-19.32-13.893c-1.33-0.861-2.76-1.826-4.275-2.848
			C426.284,55.42,410.131,44.535,392.854,44.535c-3.611,0-7.18,0.48-10.598,1.432c-0.039,0.01-0.078,0.021-0.113,0.029
			c0.035-0.008,0.074-0.02,0.113-0.029C385.842,44.971,389.366,44.535,392.854,44.535 M343.969,64.021
			c-0.59,1-1.162,2.018-1.717,3.049c0.295-0.547,0.596-1.094,0.898-1.633C343.42,64.961,343.692,64.488,343.969,64.021
			 M677.84,64.65c-2.82,1.918-5.625,3.857-8.418,5.812C672.184,68.527,674.993,66.584,677.84,64.65 M907.315,64.67
			c3.713,2.91,7.248,5.918,10.504,8.949c4.9,4.562,9.166,9.188,12.424,13.588c9.252,12.479,16.207,26.074,20.852,40.033
			c0.035,0.092,0.062,0.188,0.098,0.285c-4.688-14.168-11.721-27.867-20.949-40.318C924.874,79.963,916.739,72.086,907.315,64.67
			 M668.864,70.854c-9.604,6.742-18.816,14.893-28.229,22.836c-2.668,2.252-5.344,4.484-8.049,6.666
			c4.385-3.539,8.682-7.197,12.945-10.824C653.493,82.76,661.016,76.359,668.864,70.854 M677.76,78.08
			c-0.818,0.566-1.637,1.139-2.449,1.707c-0.877,0.611-1.746,1.236-2.619,1.875c0.873-0.641,1.748-1.264,2.619-1.875
			C676.124,79.215,676.942,78.646,677.76,78.08 M939.094,80.65c0.773,1.043,1.531,2.092,2.275,3.156
			C940.629,82.746,939.868,81.693,939.094,80.65 M672.67,81.68c-0.01,0.004-0.018,0.01-0.025,0.016
			C672.657,81.689,672.661,81.684,672.67,81.68 M656.86,94.363c-1.383,1.172-2.777,2.357-4.189,3.557
			c-17.881,15.217-36.377,30.945-59.672,37.434c6.395-1.781,12.439-4.277,18.184-7.248c5.791-2.994,11.279-6.469,16.543-10.201
			C638.131,110.518,647.672,102.133,656.86,94.363 M602.51,120.094l-0.006,0.004C602.508,120.098,602.508,120.098,602.51,120.094
			 M602.43,120.135c-0.01,0.002-0.018,0.008-0.025,0.01C602.413,120.141,602.42,120.137,602.43,120.135 M602.36,120.164
			c-0.012,0.008-0.021,0.014-0.037,0.02C602.338,120.178,602.348,120.172,602.36,120.164 M602.301,120.193
			c-4.021,1.855-8.143,3.408-12.393,4.586c-3.443,0.951-7.078,1.455-10.885,1.551c3.85-0.098,7.508-0.619,10.885-1.551
			C594.172,123.6,598.295,122.045,602.301,120.193 M592.993,135.354c-0.025,0.004-0.047,0.016-0.068,0.021
			C592.946,135.369,592.967,135.357,592.993,135.354 M592.917,135.377c-0.023,0.006-0.051,0.014-0.072,0.02
			c-0.021,0.004-0.039,0.01-0.059,0.016c0.02-0.006,0.037-0.012,0.059-0.016C592.866,135.391,592.893,135.383,592.917,135.377
			 M592.766,135.418c-0.014,0.002-0.023,0.004-0.035,0.008C592.743,135.422,592.752,135.42,592.766,135.418 M571.09,137.043
			c0.012,0.002,0.02,0.002,0.029,0.002C571.112,137.045,571.102,137.045,571.09,137.043 M571.145,137.047
			c2.197,0.207,4.383,0.314,6.555,0.314l0,0c0.418,0,0.838-0.004,1.256-0.014c-0.418,0.01-0.84,0.014-1.262,0.014
			C575.534,137.361,573.346,137.254,571.145,137.047 M570.088,157.939c-5.389,0.377-10.609,1.539-15.627,3.32
			c-6.195,2.199-12.088,5.336-17.742,9.111c-11.311,7.562-21.709,17.682-31.711,28.516c-1.242,1.344-2.479,2.701-3.707,4.068
			C521.946,180.029,543.803,159.744,570.088,157.939 M332.026,158.906c0.838,4.35,1.846,8.658,3.025,12.91
			c1.775,7.793,3.785,16.443,6.367,25.045c-2.719-9.023-4.732-17.861-6.363-25.035C333.87,167.562,332.862,163.25,332.026,158.906
			 M586.875,159.344c28.83,6.818,56.459,22.918,85.055,41.193c-8.016-5.125-16.004-10.102-23.994-14.768
			C627.84,174.049,607.706,164.279,586.875,159.344 M968.848,161.529c0.871,15.01-0.709,29.896-4.867,43.908
			c0.141-0.471,0.277-0.943,0.408-1.414c3.139-11.076,4.688-22.734,4.688-34.598C969.077,166.803,968.999,164.17,968.848,161.529
			 M345.321,167.605c0.123,0.465,0.25,0.926,0.379,1.389l0.002,0.008l-0.002-0.006C345.573,168.531,345.444,168.07,345.321,167.605
			 M573.895,168.822c3.391,0,6.855,0.395,10.441,1.24c1.781,0.422,3.564,0.885,5.346,1.385c-1.781-0.5-3.559-0.959-5.346-1.385
			c-3.479-0.822-6.994-1.24-10.443-1.24c-28.49,0-53.109,28.338-76.922,55.738c-24.24,27.893-47.137,54.24-75.223,54.24
			c-14.229,0-27.957-6.793-41.971-20.766c-0.693-0.693-1.385-1.377-2.064-2.055c-0.787-0.781-1.57-1.561-2.352-2.34
			c1.453,1.451,2.924,2.906,4.418,4.395c5.365,5.35,10.652,9.596,15.92,12.834c5.262,3.234,10.514,5.449,15.727,6.699
			c3.475,0.83,6.926,1.232,10.322,1.232h0.01c4.883,0,9.645-0.826,14.23-2.299c4.588-1.475,9.008-3.586,13.291-6.174
			c8.562-5.176,16.609-12.225,24.488-20.168c5.248-5.301,10.418-11.006,15.564-16.852c6.861-7.791,13.693-15.832,20.592-23.469
			c9.189-10.182,18.512-19.641,28.043-26.84c5.443-4.117,10.945-7.494,16.5-9.906C560.829,170.338,567.231,168.824,573.895,168.822
			 M351.76,193.004c3,10.082,6.861,20.305,12.01,28.162c-4.426-6.744-7.994-15.371-10.881-24.486
			C352.5,195.463,352.127,194.234,351.76,193.004 M952.891,204.031c-1.248,3.957-2.723,7.818-4.424,11.547
			c-6.385,14.023-15.912,26.277-28.674,35.736c-7.986,5.916-17.244,10.74-27.861,14.189c29.381-9.559,50.82-30.812,60.502-60.059
			C952.59,204.973,952.741,204.504,952.891,204.031 M657.366,204.357c19.785,12.354,40.043,26.219,61.252,38.922
			c13.707,8.207,27.816,15.928,42.484,22.424c-1.488-0.656-2.977-1.332-4.477-2.023c-26.348-12.195-51.059-28.234-74.959-43.744
			C673.467,214.613,665.381,209.365,657.366,204.357 M961.747,212.199c-4.062,11.135-9.693,21.178-16.713,29.949
			C952.233,233.139,957.797,223.012,961.747,212.199 M365.258,223.834c4.775,8.324,10.346,14.42,16.633,20.752
			c-2.609-2.623-5.055-5.17-7.344-7.805C371.163,232.883,368.1,228.793,365.258,223.834 M353.053,224.803
			c0.441,0.736,0.896,1.467,1.361,2.184c0.055,0.105,0.113,0.211,0.168,0.314c-0.055-0.104-0.109-0.207-0.164-0.311
			C353.952,226.275,353.499,225.545,353.053,224.803 M384.36,247.057c0.369,0.367,0.744,0.736,1.117,1.109
			c0.068,0.066,0.135,0.137,0.203,0.201C385.237,247.93,384.797,247.492,384.36,247.057 M886.461,267.145
			c-13.91,3.912-27.248,5.842-40.141,6.176C859.635,272.969,873.102,270.895,886.461,267.145 M837.702,284.33
			c1.504,0.043,3.014,0.062,4.527,0.062h0.018c0.826,0,1.656-0.006,2.486-0.02c-0.832,0.014-1.67,0.02-2.504,0.02
			C840.723,284.393,839.213,284.373,837.702,284.33"/>
		<path clip-path="url(#SVGID_10_)" fill="#FFFFFF" d="M807.846,19.254L807.846,19.254c8.793,0,17.984,0.504,27.322,1.504
			l0.205,0.023c2.686,0.387,5.299,0.834,7.854,1.342c6.945,1.381,13.652,3.256,20.377,5.768c1.615,0.602,3.227,1.24,4.838,1.914
			c5.039,2.107,10.506,4.783,16.131,7.904c0.842,0.467,1.688,0.943,2.533,1.43c9.549,5.49,19.203,12.08,27.891,19.172
			c8.693,7.1,16.414,14.684,22.098,22.338c0.771,1.047,1.535,2.1,2.279,3.158c16.49,23.469,25.918,50.803,27.475,77.723
			c0.15,2.637,0.229,5.273,0.229,7.896c0,11.863-1.549,23.52-4.688,34.596c-0.131,0.473-0.268,0.945-0.408,1.416
			c-0.344,1.162-0.709,2.318-1.09,3.467c-0.365,1.107-0.748,2.207-1.145,3.291c-3.949,10.816-9.514,20.943-16.713,29.953
			c-12.977,16.229-30.701,28.119-52.045,34.566c-16.02,4.84-32.236,7.416-48.256,7.658c-0.83,0.014-1.66,0.02-2.486,0.02h-0.018
			c-1.514,0-3.023-0.02-4.527-0.062c-24.672-0.666-49.824-6.783-76.6-18.627c-14.668-6.496-28.777-14.217-42.484-22.424
			c-21.209-12.703-41.467-26.564-61.252-38.92c-22.893-14.299-45.18-26.605-67.684-32.912c-1.781-0.5-3.564-0.963-5.342-1.381
			c-3.59-0.85-7.055-1.242-10.445-1.242c-6.664,0.004-13.066,1.514-19.428,4.27c-5.555,2.412-11.057,5.789-16.5,9.904
			c-9.531,7.201-18.854,16.66-28.043,26.844c-6.898,7.635-13.729,15.674-20.592,23.467c-5.15,5.846-10.316,11.551-15.564,16.852
			c-7.879,7.945-15.926,14.992-24.488,20.168c-4.283,2.588-8.703,4.699-13.291,6.174c-4.586,1.473-9.348,2.297-14.23,2.297h-0.008
			c-3.398,0.002-6.85-0.398-10.324-1.23c-5.217-1.246-10.465-3.469-15.727-6.699c-5.268-3.238-10.555-7.484-15.922-12.834
			c-1.492-1.49-2.963-2.943-4.416-4.391c-7.609-7.605-14.766-15.195-20.779-26.344c-0.055-0.104-0.111-0.209-0.168-0.316
			c-0.463-0.715-0.918-1.443-1.361-2.182c-4.965-8.293-8.709-18.225-11.635-27.941c-2.582-8.602-4.594-17.254-6.367-25.045
			c-1.18-4.248-2.189-8.561-3.025-12.91c-2.023-10.529-3.031-21.227-3.045-31.686v-0.438c0.029-22.26,4.549-43.434,13.271-59.713
			c0.555-1.033,1.127-2.049,1.717-3.049c8.738-14.777,20.93-24.674,35.34-28.672c4.383-1.213,8.938-1.832,13.545-1.832
			c0.762,0,1.514,0.016,2.266,0.049c5.191,0.223,10.174,1.186,14.885,2.596c8.084,2.428,15.379,6.172,21.682,9.939
			c2.816,1.684,5.434,3.373,7.824,4.959c1.262,0.838,2.469,1.652,3.619,2.426c1.475,0.994,2.869,1.934,4.121,2.744
			c5.287,3.438,12.055,8.465,19.891,14.287c29.922,22.232,75.141,55.828,110.553,55.828c0.445,0,0.889-0.006,1.326-0.016
			c3.811-0.096,7.445-0.6,10.889-1.553c4.25-1.176,8.371-2.725,12.393-4.586c0.008-0.004,0.012-0.006,0.021-0.012
			c0.016-0.006,0.025-0.01,0.037-0.016c0.016-0.006,0.031-0.014,0.045-0.02c0.008-0.004,0.016-0.008,0.021-0.01
			c0.025-0.012,0.051-0.025,0.076-0.035c0.002,0,0.006-0.002,0.008-0.002c10.713-4.986,20.588-12.082,30.076-19.746
			c2.703-2.182,5.381-4.41,8.043-6.662c9.418-7.943,18.631-16.092,28.236-22.836c0.041-0.029,0.084-0.062,0.127-0.09
			c0.143-0.102,0.283-0.201,0.43-0.301c2.793-1.957,5.598-3.895,8.418-5.812c15.246-10.361,31.713-20.541,49.857-28.48
			c1.031-0.451,2.068-0.893,3.113-1.33c0.555-0.234,1.115-0.465,1.674-0.693C755.01,24.127,780.34,19.254,807.846,19.254
			 M833.889,31.697c-9.139-0.973-17.799-1.43-26.043-1.43c-14.627,0-27.936,1.434-40.283,3.992c-1.139,0.236-2.271,0.48-3.4,0.736
			c-34.834,7.893-61.99,24.703-88.402,43.084c-0.818,0.566-1.637,1.135-2.449,1.707c-0.871,0.607-1.744,1.236-2.619,1.875
			c-0.01,0.006-0.014,0.012-0.021,0.018c-0.01,0.004-0.018,0.014-0.021,0.018c-5.223,3.828-10.424,8.127-15.789,12.666
			c-9.188,7.768-18.729,16.154-29.139,23.539c-5.26,3.734-10.748,7.207-16.539,10.203c-5.744,2.971-11.789,5.467-18.184,7.248
			c-0.004,0.002-0.004,0.002-0.006,0.002c-0.025,0.006-0.047,0.01-0.068,0.02c-0.002,0-0.004,0-0.008,0
			c-0.023,0.008-0.047,0.012-0.072,0.021c-0.021,0.004-0.039,0.01-0.059,0.016c-0.006,0-0.014,0.002-0.021,0.006
			c-0.012,0.002-0.021,0.004-0.033,0.008c-4.314,1.184-8.945,1.826-13.775,1.922c-0.418,0.01-0.838,0.012-1.256,0.012l0,0
			c-2.172,0-4.357-0.107-6.555-0.312c-0.01,0-0.014-0.002-0.025-0.002c-0.01,0-0.018-0.002-0.029-0.002
			c-2.256-0.211-4.535-0.527-6.826-0.938c-2.012-0.361-4.027-0.793-6.047-1.287c-11.484-2.828-23.125-7.746-34.531-13.703
			c-17.098-8.945-33.676-20.264-48.045-30.66c-7.18-5.197-13.803-10.168-19.631-14.477c-5.82-4.312-10.859-7.977-14.762-10.51
			c-2.842-1.848-6.051-4.082-9.617-6.406c-5.346-3.484-11.488-7.158-18.076-9.92c-3.293-1.387-6.695-2.543-10.156-3.348
			c-3.463-0.807-6.984-1.264-10.545-1.264c-3.486,0.004-7.012,0.439-10.598,1.434c-0.039,0.01-0.078,0.021-0.117,0.031
			c-12.107,3.396-21.996,11.758-29.396,24.859c-13.809,24.449-16.684,62.281-7.422,96.75c0.123,0.465,0.25,0.926,0.381,1.389
			l0.002,0.008l0.062,0.25c1.553,6.822,3.463,15.24,5.994,23.756c0.367,1.227,0.74,2.455,1.129,3.672
			c2.887,9.111,6.455,17.746,10.881,24.486l0.258,0.438c0.406,0.764,0.816,1.504,1.23,2.232c2.838,4.957,5.904,9.051,9.289,12.947
			c2.289,2.637,4.736,5.18,7.344,7.805c0.811,0.816,1.633,1.639,2.469,2.469c0.438,0.432,0.877,0.871,1.32,1.314
			c0.619,0.615,1.246,1.232,1.877,1.863c11.842,11.809,23.027,17.551,34.193,17.551c23.059,0,44.359-24.508,66.904-50.451
			c4.182-4.811,8.391-9.65,12.646-14.383c1.229-1.361,2.465-2.717,3.707-4.064c10.002-10.836,20.4-20.955,31.711-28.518
			c5.654-3.777,11.547-6.91,17.742-9.109c5.018-1.783,10.238-2.943,15.627-3.32c1.258-0.086,2.525-0.129,3.805-0.129
			c4.301,0,8.668,0.516,12.977,1.533c20.836,4.936,40.971,14.705,61.066,26.43c7.99,4.66,15.979,9.641,23.994,14.762
			c5.209,3.328,10.451,6.729,15.734,10.158c47.486,30.818,96.588,62.684,154.564,62.684c1.363,0,2.727-0.018,4.092-0.057
			c12.893-0.334,26.23-2.264,40.137-6.172c1.117-0.314,2.23-0.641,3.348-0.979c0.709-0.215,1.424-0.438,2.127-0.668
			c10.617-3.447,19.875-8.271,27.861-14.188c12.762-9.459,22.289-21.717,28.674-35.734c1.701-3.734,3.176-7.592,4.424-11.549
			c7.578-24.016,6.727-51.021-1.699-76.506c-0.035-0.096-0.068-0.191-0.098-0.285c-4.645-13.959-11.6-27.551-20.852-40.029
			c-3.258-4.406-7.523-9.029-12.424-13.594c-3.256-3.029-6.791-6.037-10.504-8.947c-12.156-9.572-26.469-18.387-39.795-24.141
			c-0.447-0.188-0.887-0.379-1.328-0.561c-0.256-0.105-0.51-0.213-0.768-0.318c-2.455-1.006-4.908-1.924-7.385-2.756
			c-0.012-0.002-0.021-0.008-0.033-0.01h-0.002c-5.246-1.766-10.498-3.123-15.99-4.164c-1.904-0.363-3.85-0.688-5.834-0.98
			C834.084,31.727,833.987,31.711,833.889,31.697"/>
	</g>
	<polygon fill="#FFFFFF" points="492.397,210.744 504.423,197.359 512.586,204.757 500.49,218.222 	"/>
	<polygon fill="#FFFFFF" points="499.487,94.959 514.21,104.341 503.917,110.962 490.257,102.117 	"/>
	<g>
		<defs>
			<path id="SVGID_11_" d="M492.676,201.701l9.234-10.393l14.842,16.547l-8.904,10.664L492.676,201.701z M487.727,107.199
				l20.066-12.203l12.809,7.639l-19.623,13.084L487.727,107.199z M0,296.92h704.266V0H0V296.92z"/>
		</defs>
		<clipPath id="SVGID_12_">
			<use xlink:href="#SVGID_11_"  overflow="visible"/>
		</clipPath>
		<path clip-path="url(#SVGID_12_)" fill="#008FC5" d="M202.987,19.254L202.987,19.254c-8.795,0-17.987,0.504-27.324,1.504
			l-0.203,0.023c-2.688,0.387-5.301,0.834-7.857,1.342c-6.942,1.381-13.648,3.256-20.374,5.768c-1.616,0.602-3.228,1.24-4.839,1.914
			c-5.037,2.107-10.506,4.783-16.131,7.904c-0.842,0.467-1.688,0.943-2.535,1.43c-9.547,5.49-19.2,12.08-27.889,19.172
			c-8.691,7.1-16.413,14.684-22.096,22.338c-0.772,1.047-1.535,2.1-2.278,3.158c-16.493,23.469-25.918,50.803-27.477,77.723
			c-0.152,2.637-0.229,5.273-0.229,7.896c0,11.863,1.551,23.52,4.688,34.596c0.132,0.473,0.27,0.945,0.41,1.416
			c0.344,1.162,0.707,2.318,1.089,3.467c0.365,1.107,0.748,2.207,1.145,3.291c3.95,10.816,9.512,20.943,16.712,29.953
			c12.978,16.229,30.704,28.119,52.045,34.566c16.017,4.84,32.236,7.416,48.255,7.658c0.83,0.014,1.658,0.02,2.486,0.02h0.016
			c1.518,0,3.027-0.02,4.531-0.062c24.672-0.666,49.824-6.783,76.6-18.627c14.668-6.496,28.777-14.217,42.484-22.424
			c21.209-12.703,41.467-26.564,61.25-38.92c22.896-14.299,45.18-26.605,67.684-32.912c1.783-0.5,3.564-0.963,5.346-1.381
			c3.586-0.85,7.053-1.242,10.441-1.242c6.666,0.004,13.068,1.514,19.428,4.27c5.557,2.412,11.059,5.789,16.502,9.904
			c9.529,7.201,18.852,16.66,28.041,26.844c6.898,7.635,13.729,15.674,20.594,23.467c5.148,5.846,10.314,11.551,15.564,16.852
			c7.879,7.945,15.924,14.992,24.486,20.168c4.283,2.588,8.703,4.699,13.291,6.174c4.588,1.473,9.35,2.297,14.232,2.297h0.006
			c3.4,0.002,6.85-0.398,10.326-1.23c5.217-1.246,10.463-3.469,15.727-6.699c5.268-3.238,10.555-7.484,15.922-12.834
			c1.49-1.49,2.963-2.943,4.414-4.391c7.609-7.605,14.77-15.195,20.781-26.344c0.053-0.104,0.111-0.209,0.166-0.316
			c0.467-0.715,0.918-1.443,1.361-2.182c4.967-8.293,8.709-18.225,11.635-27.941c2.582-8.602,4.594-17.254,6.367-25.045
			c1.182-4.248,2.189-8.561,3.025-12.91c2.025-10.529,3.033-21.227,3.045-31.686v-0.438c-0.029-22.26-4.551-43.434-13.27-59.713
			c-0.553-1.033-1.129-2.049-1.719-3.049c-8.736-14.777-20.928-24.674-35.34-28.672c-4.381-1.213-8.938-1.832-13.545-1.832
			c-0.76,0-1.512,0.016-2.264,0.049c-5.191,0.223-10.176,1.186-14.885,2.596c-8.084,2.428-15.381,6.172-21.682,9.939
			c-2.816,1.684-5.434,3.373-7.824,4.959c-1.262,0.838-2.471,1.652-3.621,2.426c-1.471,0.994-2.869,1.934-4.121,2.744
			c-5.285,3.438-12.053,8.465-19.889,14.287c-29.922,22.232-75.143,55.828-110.555,55.828c-0.445,0-0.889-0.006-1.326-0.016
			c-3.809-0.096-7.443-0.6-10.887-1.553c-4.25-1.176-8.371-2.725-12.393-4.586c-0.008-0.004-0.014-0.006-0.021-0.012
			c-0.016-0.006-0.025-0.01-0.039-0.016s-0.031-0.014-0.045-0.02c-0.008-0.004-0.016-0.008-0.021-0.01
			c-0.025-0.012-0.053-0.025-0.074-0.035c-0.004,0-0.006-0.002-0.008-0.002c-10.713-4.986-20.588-12.082-30.078-19.746
			c-2.701-2.182-5.381-4.41-8.043-6.662c-9.418-7.943-18.629-16.092-28.234-22.836c-0.041-0.029-0.084-0.062-0.127-0.09
			c-0.143-0.102-0.287-0.201-0.43-0.301c-2.795-1.957-5.598-3.895-8.42-5.812c-15.244-10.361-31.711-20.541-49.855-28.48
			c-1.031-0.451-2.068-0.893-3.113-1.33c-0.557-0.234-1.115-0.465-1.674-0.693C255.821,24.127,230.493,19.254,202.987,19.254
			 M176.942,31.697c9.137-0.973,17.801-1.43,26.045-1.43c14.627,0,27.936,1.434,40.279,3.992c1.143,0.236,2.275,0.48,3.404,0.736
			c34.834,7.893,61.988,24.703,88.402,43.084c0.818,0.566,1.635,1.135,2.449,1.707c0.871,0.607,1.742,1.236,2.619,1.875
			c0.008,0.006,0.014,0.012,0.021,0.018c0.008,0.004,0.016,0.014,0.023,0.018c5.221,3.828,10.42,8.127,15.785,12.666
			c9.188,7.768,18.729,16.154,29.139,23.539c5.26,3.734,10.748,7.207,16.541,10.203c5.744,2.971,11.789,5.467,18.184,7.248
			c0.002,0.002,0.002,0.002,0.006,0.002c0.021,0.006,0.043,0.01,0.066,0.02c0.002,0,0.006,0,0.008,0
			c0.025,0.008,0.051,0.012,0.074,0.021c0.02,0.004,0.039,0.01,0.059,0.016c0.004,0,0.012,0.002,0.021,0.006
			c0.012,0.002,0.021,0.004,0.033,0.008c4.312,1.184,8.943,1.826,13.775,1.922c0.418,0.01,0.836,0.012,1.254,0.012h0.004
			c2.17,0,4.357-0.107,6.553-0.312c0.008,0,0.014-0.002,0.023-0.002c0.012,0,0.02-0.002,0.031-0.002
			c2.256-0.211,4.533-0.527,6.824-0.938c2.012-0.361,4.027-0.793,6.047-1.287c11.484-2.828,23.127-7.746,34.531-13.703
			c17.1-8.945,33.678-20.264,48.047-30.66c7.178-5.197,13.803-10.168,19.629-14.477c5.822-4.312,10.861-7.977,14.762-10.51
			c2.842-1.848,6.051-4.082,9.617-6.406c5.346-3.484,11.49-7.158,18.076-9.92c3.293-1.387,6.697-2.543,10.158-3.348
			c3.463-0.807,6.984-1.264,10.543-1.264c3.49,0.004,7.012,0.439,10.598,1.434c0.037,0.01,0.078,0.021,0.119,0.031
			c12.107,3.396,21.996,11.758,29.396,24.859c13.811,24.449,16.686,62.281,7.422,96.75c-0.123,0.465-0.252,0.926-0.381,1.389
			l-0.004,0.008l-0.061,0.25c-1.553,6.822-3.465,15.24-5.996,23.756c-0.365,1.227-0.738,2.455-1.129,3.672
			c-2.885,9.111-6.455,17.746-10.879,24.486l-0.258,0.438c-0.406,0.764-0.816,1.504-1.23,2.232
			c-2.842,4.957-5.904,9.051-9.289,12.947c-2.289,2.637-4.736,5.18-7.346,7.805c-0.811,0.816-1.633,1.639-2.469,2.469
			c-0.438,0.432-0.879,0.871-1.318,1.314c-0.621,0.615-1.246,1.232-1.879,1.863c-11.844,11.809-23.027,17.551-34.193,17.551
			c-23.061,0-44.357-24.508-66.904-50.451c-4.182-4.811-8.389-9.65-12.645-14.383c-1.23-1.361-2.467-2.717-3.709-4.064
			c-10.002-10.836-20.4-20.955-31.709-28.518c-5.654-3.777-11.551-6.91-17.742-9.109c-5.018-1.783-10.238-2.943-15.629-3.32
			c-1.256-0.086-2.523-0.129-3.803-0.129c-4.303,0-8.67,0.516-12.982,1.533c-20.83,4.936-40.965,14.705-61.062,26.43
			c-7.988,4.66-15.977,9.641-23.996,14.762c-5.207,3.328-10.447,6.729-15.732,10.158c-47.486,30.818-96.588,62.684-154.566,62.684
			c-1.359,0-2.725-0.018-4.09-0.057c-12.891-0.334-26.229-2.264-40.137-6.172c-1.117-0.314-2.23-0.641-3.346-0.979
			c-0.712-0.215-1.426-0.438-2.129-0.668c-10.615-3.447-19.875-8.271-27.86-14.188c-12.764-9.459-22.29-21.717-28.674-35.734
			c-1.7-3.734-3.175-7.592-4.424-11.549c-7.579-24.016-6.729-51.021,1.7-76.506c0.033-0.096,0.065-0.191,0.097-0.285
			c4.644-13.959,11.6-27.551,20.851-40.029c3.26-4.406,7.523-9.029,12.425-13.594c3.255-3.029,6.792-6.037,10.503-8.947
			c12.156-9.572,26.469-18.387,39.797-24.141c0.445-0.188,0.887-0.379,1.325-0.561c0.257-0.105,0.512-0.213,0.769-0.318
			c2.457-1.006,4.909-1.924,7.387-2.756c0.01-0.002,0.021-0.008,0.031-0.01h0.003c5.247-1.766,10.499-3.123,15.987-4.164
			c1.906-0.363,3.852-0.688,5.838-0.98C176.75,31.727,176.844,31.711,176.942,31.697"/>
	</g>
</g>
</svg>
