<?xml version="1.0" encoding="utf-8"?>
<!-- Generator: Adobe Illustrator 15.0.2, SVG Export Plug-In . SVG Version: 6.00 Build 0)  -->
<!DOCTYPE svg PUBLIC "-//W3C//DTD SVG 1.1//EN" "http://www.w3.org/Graphics/SVG/1.1/DTD/svg11.dtd" [
	<!ENTITY ns_extend "http://ns.adobe.com/Extensibility/1.0/">
	<!ENTITY ns_ai "http://ns.adobe.com/AdobeIllustrator/10.0/">
	<!ENTITY ns_graphs "http://ns.adobe.com/Graphs/1.0/">
	<!ENTITY ns_vars "http://ns.adobe.com/Variables/1.0/">
	<!ENTITY ns_imrep "http://ns.adobe.com/ImageReplacement/1.0/">
	<!ENTITY ns_sfw "http://ns.adobe.com/SaveForWeb/1.0/">
	<!ENTITY ns_custom "http://ns.adobe.com/GenericCustomNamespace/1.0/">
	<!ENTITY ns_adobe_xpath "http://ns.adobe.com/XPath/1.0/">
]>
<svg version="1.1" id="Layer_1" xmlns:x="&ns_extend;" xmlns:i="&ns_ai;" xmlns:graph="&ns_graphs;"
	 xmlns="http://www.w3.org/2000/svg" xmlns:xlink="http://www.w3.org/1999/xlink" x="0px" y="0px" width="1011.833px"
	 height="296.92px" viewBox="0 0 1011.833 296.92" enable-background="new 0 0 1011.833 296.92" xml:space="preserve">
<metadata>
	<sfw  xmlns="&ns_sfw;">
		<slices></slices>
		<sliceSourceBounds  y="-132.96" x="-491.417" height="296.92" width="1011.833" bottomLeftOrigin="true"></sliceSourceBounds>
	</sfw>
</metadata>
<g>
	<g>
		<g>
			<g>
				<defs>
					<path id="SVGID_1_" d="M652.907,203.457l4.561-13.58l19.461,11.656l-4.943,14.018L652.907,203.457z M335.948,197.976
						l16.09-10.295l6.783,19.938l-14.255,9.251L335.948,197.976z M658.127,76.523l18.25-12.865l5.828,12.865l-18.471,14.293
						L658.127,76.523z M333.071,82.598l8.932-20.889l13.334,9.482l-9.207,20.756L333.071,82.598z M307.565,296.92h704.267V0H307.565
						V296.92z"/>
				</defs>
				<clipPath id="SVGID_2_">
					<use xlink:href="#SVGID_1_"  overflow="visible"/>
				</clipPath>
				<path clip-path="url(#SVGID_2_)" fill="#FFFFFF" d="M845.227,22.125c7.104,1.408,13.766,3.297,20.377,5.766
					C858.879,25.379,852.172,23.506,845.227,22.125 M809.842,30.268c8.248,0,16.908,0.457,26.047,1.43
					c0.098,0.014,0.195,0.029,0.291,0.043c-0.096-0.014-0.191-0.027-0.285-0.041C826.983,30.748,818.219,30.268,809.842,30.268
					c-15.936,0-30.371,1.711-43.68,4.73c1.129-0.256,2.262-0.506,3.4-0.742C781.911,31.705,795.219,30.268,809.842,30.268
					 M842.014,32.723c5.492,1.043,10.744,2.396,15.99,4.158C852.84,35.148,847.581,33.779,842.014,32.723 M395.12,33.566
					c17.686,0.746,33.18,10.055,44.389,17.494c-2.389-1.586-5.006-3.277-7.821-4.959c-6.304-3.768-13.595-7.51-21.685-9.938
					C405.293,34.752,400.309,33.787,395.12,33.566 M732.485,34.145c-0.559,0.23-1.115,0.459-1.674,0.693
					c-1.045,0.438-2.082,0.883-3.113,1.334c1.031-0.451,2.068-0.896,3.113-1.334C731.37,34.604,731.926,34.373,732.485,34.145
					 M858.006,36.881c0.012,0.006,0.021,0.008,0.033,0.012C858.028,36.889,858.018,36.887,858.006,36.881 M886.573,37.705
					c19.281,10.697,40.434,26.639,52.521,42.945c-5.684-7.658-13.404-15.24-22.098-22.34c-8.689-7.096-18.342-13.68-27.891-19.172
					C888.26,38.654,887.42,38.176,886.573,37.705 M865.424,39.65c0.258,0.105,0.512,0.211,0.768,0.318
					c0.441,0.184,0.881,0.369,1.328,0.562c-0.443-0.193-0.885-0.379-1.328-0.562C865.936,39.861,865.682,39.756,865.424,39.65
					 M392.854,44.535c3.562,0,7.082,0.457,10.547,1.262c3.461,0.807,6.861,1.961,10.154,3.342c6.59,2.766,12.73,6.439,18.076,9.924
					c3.566,2.324,6.775,4.559,9.617,6.406c3.902,2.537,8.941,6.197,14.762,10.508c5.828,4.314,12.451,9.281,19.631,14.479
					c14.369,10.396,30.948,21.717,48.045,30.66c11.406,5.957,23.047,10.875,34.531,13.703c2.02,0.496,4.035,0.93,6.047,1.287
					c-35.984-6.438-76.1-36.242-103.695-56.744c-7.688-5.711-14.326-10.645-19.32-13.893c-1.33-0.861-2.76-1.826-4.275-2.848
					C426.284,55.42,410.131,44.535,392.854,44.535c-3.609,0-7.18,0.48-10.598,1.432c-0.039,0.01-0.078,0.021-0.113,0.029
					c0.035-0.008,0.074-0.02,0.113-0.029C385.842,44.971,389.366,44.535,392.854,44.535 M343.969,64.021
					c-0.59,1-1.162,2.018-1.717,3.049c0.295-0.547,0.596-1.094,0.898-1.633C343.42,64.961,343.692,64.488,343.969,64.021
					 M677.84,64.65c-2.82,1.918-5.625,3.857-8.418,5.812C672.184,68.527,674.993,66.584,677.84,64.65 M907.315,64.67
					c3.713,2.91,7.248,5.918,10.504,8.949c4.9,4.562,9.166,9.188,12.424,13.588c9.252,12.479,16.207,26.074,20.852,40.033
					c0.035,0.092,0.062,0.188,0.102,0.285c-4.689-14.168-11.725-27.867-20.949-40.318C924.874,79.963,916.739,72.086,907.315,64.67
					 M668.864,70.854c-9.604,6.742-18.816,14.893-28.229,22.836c-2.668,2.252-5.344,4.484-8.049,6.666
					c4.385-3.539,8.682-7.197,12.945-10.824C653.493,82.76,661.016,76.359,668.864,70.854 M677.76,78.08
					c-0.818,0.566-1.637,1.139-2.449,1.707c-0.877,0.611-1.746,1.236-2.619,1.875c0.873-0.641,1.748-1.264,2.619-1.875
					C676.124,79.215,676.942,78.646,677.76,78.08 M939.094,80.65c0.773,1.043,1.531,2.092,2.275,3.156
					C940.629,82.746,939.868,81.693,939.094,80.65 M672.67,81.68c-0.01,0.004-0.018,0.01-0.025,0.016
					C672.657,81.689,672.661,81.684,672.67,81.68 M656.86,94.363c-1.383,1.172-2.777,2.357-4.189,3.557
					c-17.881,15.217-36.377,30.945-59.672,37.434c6.395-1.781,12.439-4.277,18.184-7.248c5.791-2.994,11.279-6.469,16.543-10.201
					C638.131,110.518,647.672,102.133,656.86,94.363 M602.51,120.094l-0.006,0.004C602.508,120.098,602.508,120.098,602.51,120.094
					 M602.43,120.135c-0.01,0.002-0.018,0.008-0.025,0.01C602.413,120.141,602.42,120.137,602.43,120.135 M602.36,120.164
					c-0.012,0.008-0.021,0.014-0.037,0.02C602.338,120.178,602.348,120.172,602.36,120.164 M602.301,120.193
					c-4.021,1.855-8.143,3.408-12.393,4.586c-3.443,0.951-7.078,1.455-10.885,1.551c3.85-0.098,7.508-0.619,10.885-1.551
					C594.172,123.6,598.295,122.045,602.301,120.193 M592.993,135.354c-0.025,0.004-0.047,0.016-0.068,0.021
					C592.946,135.369,592.967,135.357,592.993,135.354 M592.917,135.377c-0.023,0.006-0.051,0.014-0.072,0.02
					c-0.02,0.004-0.039,0.01-0.059,0.016c0.02-0.006,0.037-0.012,0.059-0.016C592.866,135.391,592.893,135.383,592.917,135.377
					 M592.766,135.418c-0.014,0.002-0.023,0.004-0.035,0.008C592.743,135.422,592.752,135.42,592.766,135.418 M571.09,137.043
					c0.012,0.002,0.02,0.002,0.029,0.002C571.112,137.045,571.102,137.045,571.09,137.043 M571.145,137.047
					c2.197,0.207,4.383,0.314,6.555,0.314l0,0c0.418,0,0.838-0.004,1.256-0.014c-0.418,0.01-0.84,0.014-1.262,0.014
					C575.534,137.361,573.346,137.254,571.145,137.047 M570.088,157.938c-5.389,0.377-10.609,1.539-15.627,3.32
					c-6.195,2.199-12.088,5.336-17.742,9.111c-11.311,7.562-21.709,17.682-31.711,28.516c-1.242,1.344-2.479,2.701-3.707,4.068
					C521.946,180.028,543.803,159.744,570.088,157.938 M332.026,158.906c0.838,4.35,1.846,8.657,3.023,12.909
					c1.775,7.793,3.785,16.443,6.367,25.045c-2.719-9.022-4.732-17.86-6.363-25.034C333.87,167.562,332.862,163.25,332.026,158.906
					 M586.875,159.344c28.83,6.818,56.459,22.919,85.055,41.193c-8.016-5.125-16.004-10.103-23.994-14.769
					C627.84,174.049,607.706,164.278,586.875,159.344 M968.848,161.528c0.871,15.011-0.709,29.896-4.867,43.908
					c0.141-0.471,0.277-0.942,0.408-1.414c3.139-11.076,4.688-22.733,4.688-34.598C969.077,166.803,968.999,164.17,968.848,161.528
					 M345.321,167.604c0.123,0.465,0.25,0.927,0.379,1.39l0.002,0.008l-0.002-0.006
					C345.573,168.531,345.444,168.069,345.321,167.604 M573.895,168.822c3.391,0,6.855,0.395,10.441,1.239
					c1.781,0.422,3.564,0.886,5.346,1.386c-1.781-0.5-3.559-0.96-5.346-1.386c-3.479-0.821-6.994-1.239-10.443-1.239
					c-28.49,0-53.109,28.338-76.922,55.737c-24.238,27.894-47.137,54.24-75.223,54.24c-14.229,0-27.957-6.793-41.971-20.766
					c-0.693-0.693-1.387-1.377-2.064-2.057c-0.787-0.779-1.57-1.561-2.352-2.34c1.453,1.451,2.924,2.906,4.418,4.396
					c5.363,5.35,10.65,9.596,15.92,12.834c5.262,3.232,10.514,5.447,15.727,6.697c3.477,0.83,6.926,1.232,10.322,1.232h0.01
					c4.883,0,9.646-0.826,14.23-2.299c4.588-1.475,9.008-3.586,13.291-6.174c8.562-5.176,16.607-12.225,24.486-20.168
					c5.248-5.301,10.42-11.006,15.564-16.852c6.861-7.791,13.693-15.834,20.59-23.471c9.189-10.182,18.516-19.641,28.043-26.84
					c5.443-4.117,10.945-7.494,16.5-9.906C560.829,170.338,567.231,168.824,573.895,168.822 M351.76,193.004
					c3,10.082,6.861,20.306,12.01,28.162c-4.426-6.744-7.992-15.371-10.881-24.485C352.5,195.463,352.127,194.233,351.76,193.004
					 M952.891,204.031c-1.248,3.956-2.723,7.817-4.424,11.547c-6.385,14.022-15.912,26.276-28.674,35.735
					c-7.986,5.916-17.244,10.74-27.861,14.188c29.381-9.56,50.82-30.812,60.502-60.06
					C952.59,204.974,952.741,204.504,952.891,204.031 M657.366,204.356c19.785,12.354,40.043,26.22,61.252,38.922
					c13.707,8.207,27.816,15.929,42.484,22.425c-1.488-0.656-2.977-1.332-4.477-2.022c-26.348-12.195-51.059-28.234-74.959-43.744
					C673.467,214.612,665.381,209.365,657.366,204.356 M961.747,212.199c-4.062,11.135-9.693,21.178-16.713,29.948
					C952.233,233.14,957.797,223.013,961.747,212.199 M365.258,223.834c4.775,8.324,10.346,14.42,16.633,20.752
					c-2.607-2.623-5.055-5.17-7.344-7.805C371.163,232.883,368.1,228.793,365.258,223.834 M353.053,224.804
					c0.441,0.735,0.896,1.465,1.361,2.182c0.055,0.105,0.113,0.213,0.168,0.314c-0.055-0.104-0.109-0.207-0.164-0.311
					C353.952,226.274,353.499,225.545,353.053,224.804 M384.36,247.058c0.367,0.366,0.742,0.735,1.115,1.108
					c0.068,0.065,0.137,0.138,0.203,0.201C385.237,247.931,384.797,247.492,384.36,247.058 M886.461,267.146
					c-13.91,3.912-27.248,5.842-40.141,6.176C859.635,272.969,873.102,270.896,886.461,267.146 M837.702,284.33
					c1.504,0.043,3.014,0.062,4.527,0.062h0.018c0.826,0,1.656-0.007,2.486-0.021c-0.832,0.015-1.67,0.021-2.504,0.021
					C840.723,284.394,839.213,284.373,837.702,284.33"/>
			</g>
		</g>
		<g>
			<g>
				<defs>
					<path id="SVGID_3_" d="M652.907,203.457l4.561-13.58l19.461,11.656l-4.943,14.018L652.907,203.457z M335.948,197.976
						l16.09-10.295l6.783,19.938l-14.255,9.251L335.948,197.976z M658.127,76.523l18.25-12.865l5.828,12.865l-18.471,14.293
						L658.127,76.523z M333.071,82.598l8.932-20.889l13.334,9.482l-9.207,20.756L333.071,82.598z M307.565,296.92h704.267V0H307.565
						V296.92z"/>
				</defs>
				<clipPath id="SVGID_4_">
					<use xlink:href="#SVGID_3_"  overflow="visible"/>
				</clipPath>
				<path clip-path="url(#SVGID_4_)" fill="#F26522" d="M807.846,19.254L807.846,19.254c8.793,0,17.984,0.504,27.322,1.504
					l0.205,0.023c2.686,0.387,5.299,0.834,7.854,1.342c6.945,1.381,13.652,3.256,20.377,5.768c1.615,0.602,3.227,1.24,4.838,1.914
					c5.039,2.107,10.506,4.783,16.131,7.904c0.842,0.467,1.688,0.943,2.533,1.43c9.549,5.49,19.203,12.08,27.891,19.172
					c8.693,7.1,16.414,14.684,22.098,22.338c0.771,1.047,1.535,2.1,2.279,3.158c16.49,23.469,25.918,50.803,27.475,77.723
					c0.15,2.637,0.23,5.272,0.23,7.896c0,11.863-1.549,23.521-4.689,34.597c-0.131,0.473-0.268,0.944-0.404,1.416
					c-0.348,1.162-0.709,2.317-1.094,3.467c-0.361,1.107-0.744,2.207-1.145,3.291c-3.949,10.816-9.514,20.943-16.713,29.953
					c-12.977,16.229-30.701,28.119-52.045,34.565c-16.02,4.841-32.236,7.416-48.256,7.658c-0.83,0.015-1.66,0.021-2.486,0.021
					h-0.018c-1.514,0-3.023-0.021-4.527-0.062c-24.672-0.666-49.824-6.783-76.6-18.627c-14.668-6.496-28.777-14.219-42.484-22.426
					c-21.209-12.701-41.467-26.562-61.252-38.918c-22.893-14.299-45.18-26.605-67.684-32.912c-1.781-0.5-3.564-0.963-5.342-1.381
					c-3.59-0.851-7.055-1.242-10.445-1.242c-6.664,0.004-13.066,1.514-19.428,4.27c-5.555,2.412-11.057,5.789-16.5,9.904
					c-9.531,7.201-18.854,16.66-28.043,26.844c-6.898,7.635-13.729,15.676-20.592,23.469c-5.15,5.846-10.316,11.551-15.564,16.852
					c-7.879,7.945-15.926,14.992-24.486,20.168c-4.283,2.588-8.703,4.699-13.291,6.174c-4.586,1.473-9.35,2.297-14.23,2.297h-0.008
					c-3.397,0.002-6.85-0.398-10.324-1.23c-5.217-1.244-10.465-3.469-15.727-6.697c-5.27-3.238-10.556-7.484-15.922-12.834
					c-1.492-1.49-2.963-2.943-4.416-4.393c-7.609-7.604-14.768-15.193-20.779-26.344c-0.055-0.104-0.111-0.209-0.168-0.316
					c-0.463-0.715-0.918-1.441-1.361-2.18c-4.965-8.293-8.709-18.226-11.635-27.941c-2.582-8.602-4.594-17.254-6.367-25.045
					c-1.18-4.248-2.188-8.562-3.023-12.91c-2.023-10.529-3.031-21.227-3.045-31.686v-0.438c0.027-22.26,4.549-43.434,13.271-59.713
					c0.556-1.033,1.127-2.049,1.717-3.049c8.738-14.777,20.932-24.674,35.341-28.672c4.384-1.213,8.938-1.832,13.546-1.832
					c0.762,0,1.514,0.016,2.266,0.049c5.191,0.223,10.174,1.186,14.885,2.596c8.084,2.428,15.379,6.172,21.684,9.939
					c2.814,1.684,5.434,3.373,7.822,4.959c1.264,0.838,2.471,1.652,3.619,2.426c1.477,0.994,2.869,1.934,4.121,2.744
					c5.287,3.438,12.056,8.465,19.892,14.287c29.923,22.232,75.141,55.828,110.553,55.828c0.445,0,0.889-0.006,1.326-0.016
					c3.811-0.096,7.443-0.6,10.889-1.553c4.25-1.176,8.371-2.725,12.393-4.586c0.01-0.004,0.014-0.006,0.021-0.012
					c0.016-0.006,0.025-0.01,0.037-0.016c0.016-0.006,0.031-0.014,0.045-0.02c0.008-0.004,0.016-0.008,0.02-0.01
					c0.025-0.012,0.053-0.025,0.076-0.035c0.002,0,0.006-0.002,0.008-0.002c10.713-4.986,20.588-12.082,30.076-19.746
					c2.703-2.182,5.381-4.41,8.043-6.662c9.418-7.943,18.631-16.092,28.236-22.836c0.041-0.029,0.084-0.062,0.127-0.09
					c0.143-0.102,0.283-0.201,0.43-0.301c2.793-1.957,5.6-3.895,8.418-5.812c15.246-10.361,31.713-20.541,49.857-28.48
					c1.031-0.451,2.066-0.893,3.113-1.33c0.555-0.234,1.113-0.465,1.674-0.693C755.01,24.127,780.34,19.254,807.846,19.254
					 M833.889,31.697c-9.139-0.973-17.799-1.43-26.043-1.43c-14.627,0-27.936,1.434-40.283,3.992c-1.139,0.236-2.271,0.48-3.4,0.736
					c-34.834,7.893-61.99,24.703-88.402,43.084c-0.814,0.566-1.637,1.135-2.449,1.707c-0.867,0.607-1.74,1.236-2.615,1.875
					c-0.014,0.006-0.018,0.012-0.021,0.018c-0.01,0.004-0.018,0.014-0.021,0.018c-5.223,3.828-10.424,8.127-15.789,12.666
					c-9.188,7.768-18.729,16.154-29.139,23.539c-5.26,3.734-10.748,7.207-16.539,10.203c-5.744,2.971-11.789,5.467-18.184,7.248
					c-0.004,0.002-0.004,0.002-0.006,0.002c-0.025,0.006-0.047,0.01-0.068,0.02c-0.002,0-0.004,0-0.008,0
					c-0.023,0.008-0.047,0.012-0.072,0.021c-0.021,0.004-0.039,0.01-0.059,0.016c-0.006,0-0.014,0.002-0.021,0.006
					c-0.012,0.002-0.021,0.004-0.033,0.008c-4.314,1.184-8.945,1.826-13.775,1.922c-0.418,0.01-0.838,0.012-1.256,0.012l0,0
					c-2.172,0-4.357-0.107-6.555-0.312c-0.01,0-0.014-0.002-0.025-0.002c-0.01,0-0.018-0.002-0.029-0.002
					c-2.256-0.211-4.535-0.527-6.826-0.938c-2.012-0.361-4.023-0.793-6.047-1.287c-11.48-2.828-23.125-7.746-34.529-13.703
					c-17.098-8.945-33.676-20.264-48.045-30.66c-7.18-5.197-13.803-10.168-19.631-14.477c-5.818-4.312-10.857-7.977-14.762-10.51
					c-2.842-1.848-6.051-4.082-9.617-6.406c-5.346-3.484-11.488-7.158-18.076-9.92c-3.293-1.387-6.693-2.543-10.154-3.348
					c-3.464-0.807-6.984-1.264-10.546-1.264c-3.485,0.004-7.013,0.439-10.599,1.434c-0.039,0.01-0.078,0.021-0.117,0.031
					c-12.105,3.396-21.996,11.758-29.396,24.859c-13.811,24.449-16.686,62.281-7.422,96.75c0.123,0.465,0.25,0.926,0.381,1.39
					l0.002,0.008l0.062,0.25c1.555,6.822,3.465,15.24,5.994,23.756c0.367,1.228,0.74,2.455,1.129,3.673
					c2.889,9.11,6.455,17.745,10.883,24.485l0.258,0.438c0.404,0.764,0.814,1.504,1.229,2.231c2.838,4.957,5.904,9.052,9.289,12.947
					c2.289,2.637,4.736,5.18,7.344,7.805c0.812,0.815,1.635,1.64,2.471,2.47c0.438,0.432,0.877,0.87,1.318,1.313
					c0.619,0.614,1.246,1.231,1.877,1.862c11.844,11.81,23.027,17.552,34.193,17.552c23.059,0,44.359-24.509,66.904-50.451
					c4.182-4.812,8.391-9.649,12.646-14.383c1.229-1.361,2.465-2.718,3.707-4.063c10.001-10.837,20.402-20.955,31.71-28.519
					c5.654-3.777,11.547-6.91,17.742-9.109c5.02-1.782,10.238-2.942,15.627-3.319c1.258-0.086,2.525-0.129,3.807-0.129
					c4.301,0,8.668,0.516,12.977,1.532c20.836,4.937,40.971,14.705,61.066,26.431c7.988,4.66,15.979,9.641,23.992,14.762
					c5.209,3.328,10.451,6.729,15.734,10.158c47.486,30.818,96.588,62.684,154.564,62.684c1.361,0,2.727-0.02,4.092-0.059
					c12.893-0.334,26.229-2.264,40.137-6.172c1.117-0.312,2.23-0.641,3.348-0.979c0.709-0.215,1.426-0.438,2.127-0.668
					c10.617-3.447,19.875-8.271,27.861-14.188c12.762-9.459,22.289-21.717,28.674-35.734c1.701-3.734,3.178-7.592,4.426-11.549
					c7.576-24.016,6.727-51.021-1.699-76.506c-0.035-0.096-0.068-0.191-0.1-0.285c-4.645-13.959-11.6-27.551-20.852-40.029
					c-3.258-4.406-7.523-9.029-12.424-13.594c-3.256-3.029-6.791-6.037-10.504-8.947c-12.156-9.572-26.471-18.387-39.795-24.141
					c-0.447-0.188-0.889-0.379-1.328-0.561c-0.256-0.105-0.512-0.213-0.77-0.318c-2.455-1.006-4.908-1.924-7.385-2.756
					c-0.012-0.002-0.021-0.008-0.033-0.01h-0.002c-5.246-1.766-10.498-3.123-15.99-4.164c-1.902-0.363-3.85-0.688-5.834-0.98
					C834.084,31.727,833.987,31.711,833.889,31.697"/>
			</g>
		</g>
	</g>
	<polygon fill="#F26522" points="492.397,210.744 504.423,197.358 512.586,204.757 500.49,218.222 	"/>
	<polygon fill="#F26522" points="499.487,94.959 514.209,104.341 503.917,110.962 490.257,102.117 	"/>
	<g>
		<g>
			<g>
				<defs>
					<path id="SVGID_5_" d="M492.676,201.701l9.234-10.394l14.842,16.547l-8.904,10.664L492.676,201.701z M487.727,107.199
						l20.067-12.203l12.809,7.639l-19.624,13.084L487.727,107.199z M0,296.92h704.266V0H0V296.92z"/>
				</defs>
				<clipPath id="SVGID_6_">
					<use xlink:href="#SVGID_5_"  overflow="visible"/>
				</clipPath>
				<path clip-path="url(#SVGID_6_)" fill="#008FC5" d="M202.987,19.254L202.987,19.254c-8.795,0-17.987,0.504-27.324,1.504
					l-0.203,0.023c-2.688,0.387-5.301,0.834-7.857,1.342c-6.942,1.381-13.648,3.256-20.374,5.768
					c-1.616,0.602-3.228,1.24-4.839,1.914c-5.037,2.107-10.506,4.783-16.131,7.904c-0.842,0.467-1.688,0.943-2.535,1.43
					c-9.547,5.49-19.2,12.08-27.889,19.172c-8.691,7.1-16.413,14.684-22.096,22.338c-0.772,1.047-1.535,2.1-2.278,3.158
					c-16.493,23.469-25.918,50.803-27.477,77.723c-0.152,2.637-0.229,5.272-0.229,7.896c0,11.863,1.551,23.521,4.688,34.597
					c0.132,0.473,0.27,0.944,0.41,1.416c0.344,1.162,0.707,2.317,1.089,3.467c0.365,1.107,0.748,2.207,1.145,3.291
					c3.95,10.816,9.512,20.943,16.712,29.953c12.978,16.229,30.704,28.119,52.045,34.565c16.017,4.841,32.236,7.416,48.255,7.658
					c0.83,0.015,1.658,0.021,2.486,0.021h0.016c1.518,0,3.027-0.021,4.531-0.062c24.672-0.666,49.824-6.783,76.6-18.627
					c14.668-6.496,28.777-14.219,42.484-22.426c21.209-12.701,41.467-26.562,61.25-38.918
					c22.896-14.299,45.182-26.605,67.686-32.912c1.781-0.5,3.562-0.963,5.346-1.381c3.586-0.851,7.053-1.242,10.441-1.242
					c6.665,0.004,13.066,1.514,19.428,4.27c5.557,2.412,11.059,5.789,16.502,9.904c9.529,7.201,18.852,16.66,28.041,26.844
					c6.896,7.635,13.728,15.676,20.593,23.469c5.148,5.846,10.314,11.551,15.564,16.852c7.879,7.945,15.924,14.992,24.484,20.168
					c4.283,2.588,8.703,4.699,13.291,6.174c4.588,1.473,9.352,2.297,14.232,2.297h0.006c3.4,0.002,6.85-0.398,10.326-1.23
					c5.217-1.244,10.463-3.469,15.727-6.697c5.27-3.238,10.557-7.484,15.922-12.834c1.49-1.49,2.965-2.943,4.414-4.393
					c7.609-7.604,14.771-15.193,20.781-26.344c0.053-0.104,0.111-0.209,0.166-0.316c0.467-0.715,0.918-1.441,1.361-2.18
					c4.967-8.293,8.709-18.226,11.635-27.941c2.582-8.602,4.594-17.254,6.367-25.045c1.182-4.248,2.188-8.562,3.023-12.91
					c2.025-10.529,3.033-21.227,3.047-31.686v-0.438c-0.029-22.26-4.553-43.434-13.271-59.713c-0.553-1.033-1.129-2.049-1.719-3.049
					c-8.736-14.777-20.928-24.674-35.34-28.672c-4.383-1.213-8.939-1.832-13.545-1.832c-0.762,0-1.514,0.016-2.266,0.049
					c-5.189,0.223-10.176,1.186-14.885,2.596c-8.084,2.428-15.381,6.172-21.682,9.939c-2.816,1.684-5.436,3.373-7.824,4.959
					c-1.264,0.838-2.473,1.652-3.621,2.426c-1.471,0.994-2.869,1.934-4.121,2.744c-5.285,3.438-12.053,8.465-19.889,14.287
					c-29.922,22.232-75.144,55.828-110.556,55.828c-0.443,0-0.889-0.006-1.324-0.016c-3.811-0.096-7.443-0.6-10.889-1.553
					c-4.25-1.176-8.371-2.725-12.393-4.586c-0.008-0.004-0.015-0.006-0.021-0.012c-0.016-0.006-0.023-0.01-0.039-0.016
					c-0.014-0.006-0.029-0.014-0.045-0.02c-0.008-0.004-0.016-0.008-0.021-0.01c-0.025-0.012-0.053-0.025-0.074-0.035
					c-0.004,0-0.006-0.002-0.008-0.002c-10.713-4.986-20.588-12.082-30.078-19.746c-2.701-2.182-5.381-4.41-8.043-6.662
					c-9.418-7.943-18.629-16.092-28.234-22.836c-0.041-0.029-0.084-0.062-0.127-0.09c-0.143-0.102-0.287-0.201-0.43-0.301
					c-2.795-1.957-5.598-3.895-8.42-5.812c-15.244-10.361-31.711-20.541-49.855-28.48c-1.031-0.451-2.068-0.893-3.113-1.33
					c-0.557-0.234-1.115-0.465-1.674-0.693C255.821,24.127,230.493,19.254,202.987,19.254 M176.942,31.697
					c9.137-0.973,17.801-1.43,26.045-1.43c14.627,0,27.936,1.434,40.279,3.992c1.143,0.236,2.275,0.48,3.404,0.736
					c34.834,7.893,61.988,24.703,88.402,43.084c0.816,0.566,1.635,1.135,2.449,1.707c0.869,0.607,1.74,1.236,2.617,1.875
					c0.01,0.006,0.016,0.012,0.021,0.018c0.008,0.004,0.016,0.014,0.021,0.018c5.223,3.828,10.42,8.127,15.785,12.666
					c9.188,7.768,18.729,16.154,29.141,23.539c5.26,3.734,10.748,7.207,16.541,10.203c5.742,2.971,11.787,5.467,18.184,7.248
					c0.002,0.002,0.002,0.002,0.006,0.002c0.021,0.006,0.043,0.01,0.066,0.02c0.002,0,0.006,0,0.008,0
					c0.023,0.008,0.051,0.012,0.074,0.021c0.02,0.004,0.039,0.01,0.059,0.016c0.004,0,0.012,0.002,0.021,0.006
					c0.012,0.002,0.021,0.004,0.031,0.008c4.312,1.184,8.943,1.826,13.775,1.922c0.418,0.01,0.836,0.012,1.254,0.012h0.004
					c2.17,0,4.357-0.107,6.553-0.312c0.01,0,0.016-0.002,0.023-0.002c0.012,0,0.02-0.002,0.031-0.002
					c2.256-0.211,4.533-0.527,6.824-0.938c2.012-0.361,4.025-0.793,6.047-1.287c11.482-2.828,23.127-7.746,34.529-13.703
					c17.102-8.945,33.68-20.264,48.049-30.66c7.178-5.197,13.803-10.168,19.629-14.477c5.818-4.312,10.857-7.977,14.762-10.51
					c2.842-1.848,6.051-4.082,9.617-6.406c5.346-3.484,11.49-7.158,18.076-9.92c3.293-1.387,6.693-2.543,10.154-3.348
					c3.467-0.807,6.984-1.264,10.545-1.264c3.488,0.004,7.014,0.439,10.6,1.434c0.037,0.01,0.078,0.021,0.119,0.031
					c12.104,3.396,21.996,11.758,29.395,24.859c13.812,24.449,16.688,62.281,7.422,96.75c-0.123,0.465-0.252,0.926-0.381,1.39
					l-0.004,0.008l-0.061,0.25c-1.555,6.822-3.467,15.24-5.996,23.756c-0.365,1.228-0.738,2.455-1.129,3.673
					c-2.887,9.11-6.455,17.745-10.881,24.485l-0.258,0.438c-0.404,0.764-0.814,1.504-1.229,2.231
					c-2.842,4.957-5.904,9.052-9.289,12.947c-2.289,2.637-4.736,5.18-7.346,7.805c-0.812,0.815-1.635,1.64-2.471,2.47
					c-0.438,0.432-0.879,0.87-1.316,1.313c-0.621,0.614-1.246,1.231-1.879,1.862c-11.846,11.81-23.027,17.552-34.193,17.552
					c-23.062,0-44.357-24.509-66.904-50.451c-4.182-4.812-8.389-9.649-12.645-14.383c-1.23-1.361-2.467-2.718-3.709-4.063
					c-10.001-10.837-20.401-20.955-31.708-28.519c-5.654-3.777-11.552-6.91-17.742-9.109c-5.019-1.782-10.238-2.942-15.629-3.319
					c-1.256-0.086-2.523-0.129-3.804-0.129c-4.304,0-8.67,0.516-12.981,1.532c-20.83,4.937-40.965,14.705-61.062,26.431
					c-7.987,4.66-15.978,9.641-23.995,14.762c-5.207,3.328-10.447,6.729-15.732,10.158c-47.486,30.818-96.588,62.684-154.566,62.684
					c-1.359,0-2.725-0.02-4.09-0.059c-12.891-0.334-26.229-2.264-40.137-6.172c-1.117-0.312-2.23-0.641-3.346-0.979
					c-0.712-0.215-1.426-0.438-2.129-0.668c-10.615-3.447-19.875-8.271-27.86-14.188c-12.764-9.459-22.29-21.717-28.674-35.734
					c-1.7-3.734-3.175-7.592-4.424-11.549c-7.579-24.016-6.729-51.021,1.7-76.506c0.033-0.096,0.065-0.191,0.097-0.285
					c4.644-13.959,11.6-27.551,20.851-40.029c3.26-4.406,7.523-9.029,12.425-13.594c3.255-3.029,6.792-6.037,10.503-8.947
					c12.156-9.572,26.469-18.387,39.797-24.141c0.445-0.188,0.887-0.379,1.325-0.561c0.257-0.105,0.512-0.213,0.769-0.318
					c2.457-1.006,4.909-1.924,7.387-2.756c0.01-0.002,0.021-0.008,0.031-0.01h0.003c5.247-1.766,10.499-3.123,15.987-4.164
					c1.906-0.363,3.852-0.688,5.838-0.98C176.75,31.727,176.844,31.711,176.942,31.697"/>
			</g>
		</g>
	</g>
</g>
</svg>
